<mxfile host="app.diagrams.net" modified="2023-08-16T18:30:42.037Z" agent="Mozilla/5.0 (Windows NT 10.0; Win64; x64) AppleWebKit/537.36 (KHTML, like Gecko) Chrome/114.0.0.0 Safari/537.36 OPR/100.0.0.0" etag="zcnRxiazbtcJ_i_ulHhZ" version="21.6.8" type="device">
  <diagram name="PÃ¡gina-1" id="YRho2tCiErpQCv4FO0u2">
    <mxGraphModel dx="3350" dy="2622" grid="1" gridSize="10" guides="1" tooltips="1" connect="1" arrows="1" fold="1" page="1" pageScale="1" pageWidth="827" pageHeight="1169" math="0" shadow="0">
      <root>
        <mxCell id="0" />
        <mxCell id="1" parent="0" />
        <mxCell id="_Bfm6WtnI7c3qEJHPDgw-30" style="edgeStyle=orthogonalEdgeStyle;rounded=0;orthogonalLoop=1;jettySize=auto;html=1;entryX=0.5;entryY=0;entryDx=0;entryDy=0;endArrow=none;endFill=0;" parent="1" target="_Bfm6WtnI7c3qEJHPDgw-27" edge="1">
          <mxGeometry relative="1" as="geometry">
            <mxPoint x="-670.5" y="-390" as="sourcePoint" />
          </mxGeometry>
        </mxCell>
        <mxCell id="_Bfm6WtnI7c3qEJHPDgw-6" value="Administrador" style="html=1;whiteSpace=wrap;" parent="1" vertex="1">
          <mxGeometry x="-725.5" y="-440" width="110" height="50" as="geometry" />
        </mxCell>
        <mxCell id="_Bfm6WtnI7c3qEJHPDgw-8" value="Clinica" style="html=1;whiteSpace=wrap;" parent="1" vertex="1">
          <mxGeometry x="-725.5" y="-230" width="110" height="50" as="geometry" />
        </mxCell>
        <mxCell id="qcG-YsEcirUFTlGkKuyn-28" style="edgeStyle=orthogonalEdgeStyle;rounded=0;orthogonalLoop=1;jettySize=auto;html=1;entryX=0.5;entryY=0;entryDx=0;entryDy=0;endArrow=none;endFill=0;" parent="1" source="_Bfm6WtnI7c3qEJHPDgw-9" target="_Bfm6WtnI7c3qEJHPDgw-24" edge="1">
          <mxGeometry relative="1" as="geometry" />
        </mxCell>
        <mxCell id="_Bfm6WtnI7c3qEJHPDgw-9" value="Paciente" style="html=1;whiteSpace=wrap;" parent="1" vertex="1">
          <mxGeometry x="-83.5" y="-490" width="110" height="50" as="geometry" />
        </mxCell>
        <mxCell id="qcG-YsEcirUFTlGkKuyn-23" style="edgeStyle=orthogonalEdgeStyle;rounded=0;orthogonalLoop=1;jettySize=auto;html=1;entryX=1;entryY=0.5;entryDx=0;entryDy=0;endArrow=none;endFill=0;" parent="1" source="_Bfm6WtnI7c3qEJHPDgw-10" target="_Bfm6WtnI7c3qEJHPDgw-16" edge="1">
          <mxGeometry relative="1" as="geometry" />
        </mxCell>
        <mxCell id="qcG-YsEcirUFTlGkKuyn-26" style="edgeStyle=orthogonalEdgeStyle;rounded=0;orthogonalLoop=1;jettySize=auto;html=1;entryX=0.5;entryY=0;entryDx=0;entryDy=0;endArrow=none;endFill=0;" parent="1" source="_Bfm6WtnI7c3qEJHPDgw-10" target="_Bfm6WtnI7c3qEJHPDgw-21" edge="1">
          <mxGeometry relative="1" as="geometry" />
        </mxCell>
        <mxCell id="_Bfm6WtnI7c3qEJHPDgw-10" value="Medico" style="html=1;whiteSpace=wrap;" parent="1" vertex="1">
          <mxGeometry x="-395.5" y="-440" width="110" height="50" as="geometry" />
        </mxCell>
        <mxCell id="qcG-YsEcirUFTlGkKuyn-27" style="edgeStyle=orthogonalEdgeStyle;rounded=0;orthogonalLoop=1;jettySize=auto;html=1;entryX=0.5;entryY=1;entryDx=0;entryDy=0;endArrow=none;endFill=0;" parent="1" source="_Bfm6WtnI7c3qEJHPDgw-11" target="_Bfm6WtnI7c3qEJHPDgw-21" edge="1">
          <mxGeometry relative="1" as="geometry" />
        </mxCell>
        <mxCell id="qcG-YsEcirUFTlGkKuyn-78" style="edgeStyle=orthogonalEdgeStyle;rounded=0;orthogonalLoop=1;jettySize=auto;html=1;entryX=0.5;entryY=1;entryDx=0;entryDy=0;endArrow=none;endFill=0;" parent="1" source="_Bfm6WtnI7c3qEJHPDgw-11" target="qcG-YsEcirUFTlGkKuyn-77" edge="1">
          <mxGeometry relative="1" as="geometry">
            <Array as="points">
              <mxPoint x="-226.5" y="-40" />
              <mxPoint x="173.5" y="-40" />
            </Array>
          </mxGeometry>
        </mxCell>
        <mxCell id="_Bfm6WtnI7c3qEJHPDgw-11" value="Consultas" style="html=1;whiteSpace=wrap;" parent="1" vertex="1">
          <mxGeometry x="-281.5" y="-160" width="110" height="50" as="geometry" />
        </mxCell>
        <mxCell id="_Bfm6WtnI7c3qEJHPDgw-17" style="edgeStyle=orthogonalEdgeStyle;rounded=0;orthogonalLoop=1;jettySize=auto;html=1;entryX=1;entryY=0.5;entryDx=0;entryDy=0;endArrow=none;endFill=0;" parent="1" source="_Bfm6WtnI7c3qEJHPDgw-16" target="_Bfm6WtnI7c3qEJHPDgw-8" edge="1">
          <mxGeometry relative="1" as="geometry">
            <mxPoint x="-615.5" y="-205" as="targetPoint" />
          </mxGeometry>
        </mxCell>
        <mxCell id="_Bfm6WtnI7c3qEJHPDgw-16" value="Possui" style="rhombus;whiteSpace=wrap;html=1;" parent="1" vertex="1">
          <mxGeometry x="-529.5" y="-240" width="80" height="70" as="geometry" />
        </mxCell>
        <mxCell id="_Bfm6WtnI7c3qEJHPDgw-21" value="Possui" style="rhombus;whiteSpace=wrap;html=1;" parent="1" vertex="1">
          <mxGeometry x="-266.5" y="-320" width="80" height="70" as="geometry" />
        </mxCell>
        <mxCell id="qcG-YsEcirUFTlGkKuyn-29" style="edgeStyle=orthogonalEdgeStyle;rounded=0;orthogonalLoop=1;jettySize=auto;html=1;entryX=1;entryY=0.5;entryDx=0;entryDy=0;exitX=0.5;exitY=1;exitDx=0;exitDy=0;endArrow=none;endFill=0;" parent="1" source="_Bfm6WtnI7c3qEJHPDgw-24" target="_Bfm6WtnI7c3qEJHPDgw-11" edge="1">
          <mxGeometry relative="1" as="geometry" />
        </mxCell>
        <mxCell id="_Bfm6WtnI7c3qEJHPDgw-24" value="Possui" style="rhombus;whiteSpace=wrap;html=1;" parent="1" vertex="1">
          <mxGeometry x="-68.5" y="-310" width="80" height="70" as="geometry" />
        </mxCell>
        <mxCell id="_Bfm6WtnI7c3qEJHPDgw-28" style="edgeStyle=orthogonalEdgeStyle;rounded=0;orthogonalLoop=1;jettySize=auto;html=1;entryX=0.5;entryY=0;entryDx=0;entryDy=0;endArrow=none;endFill=0;" parent="1" source="_Bfm6WtnI7c3qEJHPDgw-27" target="_Bfm6WtnI7c3qEJHPDgw-8" edge="1">
          <mxGeometry relative="1" as="geometry">
            <mxPoint x="-670.5" y="-230" as="targetPoint" />
          </mxGeometry>
        </mxCell>
        <mxCell id="_Bfm6WtnI7c3qEJHPDgw-27" value="Possui" style="rhombus;whiteSpace=wrap;html=1;" parent="1" vertex="1">
          <mxGeometry x="-710.5" y="-340" width="80" height="70" as="geometry" />
        </mxCell>
        <mxCell id="_Bfm6WtnI7c3qEJHPDgw-31" value="1" style="text;html=1;align=center;verticalAlign=middle;resizable=0;points=[];autosize=1;strokeColor=none;fillColor=none;fontColor=#ffffff;" parent="1" vertex="1">
          <mxGeometry x="-700.5" y="-260" width="30" height="30" as="geometry" />
        </mxCell>
        <mxCell id="_Bfm6WtnI7c3qEJHPDgw-32" value="n" style="text;html=1;align=center;verticalAlign=middle;resizable=0;points=[];autosize=1;strokeColor=none;fillColor=none;fontColor=#ffffff;" parent="1" vertex="1">
          <mxGeometry x="-700.5" y="-390" width="30" height="30" as="geometry" />
        </mxCell>
        <mxCell id="_Bfm6WtnI7c3qEJHPDgw-41" value="&lt;font color=&quot;#000000&quot;&gt;Modelo Conceitual&lt;/font&gt;" style="html=1;whiteSpace=wrap;fontSize=19;" parent="1" vertex="1">
          <mxGeometry x="-696" y="-800" width="241" height="100" as="geometry" />
        </mxCell>
        <mxCell id="_Bfm6WtnI7c3qEJHPDgw-42" value="Modelo Logico" style="html=1;whiteSpace=wrap;fontSize=19;" parent="1" vertex="1">
          <mxGeometry x="209.5" y="370" width="241" height="100" as="geometry" />
        </mxCell>
        <mxCell id="_Bfm6WtnI7c3qEJHPDgw-43" value="Administrador" style="shape=table;startSize=30;container=1;collapsible=1;childLayout=tableLayout;fixedRows=1;rowLines=0;fontStyle=1;align=center;resizeLast=1;html=1;" parent="1" vertex="1">
          <mxGeometry x="531" y="520" width="180" height="180" as="geometry" />
        </mxCell>
        <mxCell id="_Bfm6WtnI7c3qEJHPDgw-44" value="" style="shape=tableRow;horizontal=0;startSize=0;swimlaneHead=0;swimlaneBody=0;fillColor=none;collapsible=0;dropTarget=0;points=[[0,0.5],[1,0.5]];portConstraint=eastwest;top=0;left=0;right=0;bottom=1;" parent="_Bfm6WtnI7c3qEJHPDgw-43" vertex="1">
          <mxGeometry y="30" width="180" height="30" as="geometry" />
        </mxCell>
        <mxCell id="_Bfm6WtnI7c3qEJHPDgw-45" value="PK" style="shape=partialRectangle;connectable=0;fillColor=none;top=0;left=0;bottom=0;right=0;fontStyle=1;overflow=hidden;whiteSpace=wrap;html=1;" parent="_Bfm6WtnI7c3qEJHPDgw-44" vertex="1">
          <mxGeometry width="30" height="30" as="geometry">
            <mxRectangle width="30" height="30" as="alternateBounds" />
          </mxGeometry>
        </mxCell>
        <mxCell id="_Bfm6WtnI7c3qEJHPDgw-46" value="IdAdminstrador" style="shape=partialRectangle;connectable=0;fillColor=none;top=0;left=0;bottom=0;right=0;align=left;spacingLeft=6;fontStyle=5;overflow=hidden;whiteSpace=wrap;html=1;" parent="_Bfm6WtnI7c3qEJHPDgw-44" vertex="1">
          <mxGeometry x="30" width="150" height="30" as="geometry">
            <mxRectangle width="150" height="30" as="alternateBounds" />
          </mxGeometry>
        </mxCell>
        <mxCell id="_Bfm6WtnI7c3qEJHPDgw-56" style="shape=tableRow;horizontal=0;startSize=0;swimlaneHead=0;swimlaneBody=0;fillColor=none;collapsible=0;dropTarget=0;points=[[0,0.5],[1,0.5]];portConstraint=eastwest;top=0;left=0;right=0;bottom=1;" parent="_Bfm6WtnI7c3qEJHPDgw-43" vertex="1">
          <mxGeometry y="60" width="180" height="30" as="geometry" />
        </mxCell>
        <mxCell id="_Bfm6WtnI7c3qEJHPDgw-57" value="FK" style="shape=partialRectangle;connectable=0;fillColor=none;top=0;left=0;bottom=0;right=0;fontStyle=1;overflow=hidden;whiteSpace=wrap;html=1;" parent="_Bfm6WtnI7c3qEJHPDgw-56" vertex="1">
          <mxGeometry width="30" height="30" as="geometry">
            <mxRectangle width="30" height="30" as="alternateBounds" />
          </mxGeometry>
        </mxCell>
        <mxCell id="_Bfm6WtnI7c3qEJHPDgw-58" value="IdClinica" style="shape=partialRectangle;connectable=0;fillColor=none;top=0;left=0;bottom=0;right=0;align=left;spacingLeft=6;fontStyle=5;overflow=hidden;whiteSpace=wrap;html=1;" parent="_Bfm6WtnI7c3qEJHPDgw-56" vertex="1">
          <mxGeometry x="30" width="150" height="30" as="geometry">
            <mxRectangle width="150" height="30" as="alternateBounds" />
          </mxGeometry>
        </mxCell>
        <mxCell id="qcG-YsEcirUFTlGkKuyn-116" style="shape=tableRow;horizontal=0;startSize=0;swimlaneHead=0;swimlaneBody=0;fillColor=none;collapsible=0;dropTarget=0;points=[[0,0.5],[1,0.5]];portConstraint=eastwest;top=0;left=0;right=0;bottom=1;" parent="_Bfm6WtnI7c3qEJHPDgw-43" vertex="1">
          <mxGeometry y="90" width="180" height="30" as="geometry" />
        </mxCell>
        <mxCell id="qcG-YsEcirUFTlGkKuyn-117" value="FK" style="shape=partialRectangle;connectable=0;fillColor=none;top=0;left=0;bottom=0;right=0;fontStyle=1;overflow=hidden;whiteSpace=wrap;html=1;" parent="qcG-YsEcirUFTlGkKuyn-116" vertex="1">
          <mxGeometry width="30" height="30" as="geometry">
            <mxRectangle width="30" height="30" as="alternateBounds" />
          </mxGeometry>
        </mxCell>
        <mxCell id="qcG-YsEcirUFTlGkKuyn-118" value="IdUsuario" style="shape=partialRectangle;connectable=0;fillColor=none;top=0;left=0;bottom=0;right=0;align=left;spacingLeft=6;fontStyle=5;overflow=hidden;whiteSpace=wrap;html=1;" parent="qcG-YsEcirUFTlGkKuyn-116" vertex="1">
          <mxGeometry x="30" width="150" height="30" as="geometry">
            <mxRectangle width="150" height="30" as="alternateBounds" />
          </mxGeometry>
        </mxCell>
        <mxCell id="_Bfm6WtnI7c3qEJHPDgw-50" value="" style="shape=tableRow;horizontal=0;startSize=0;swimlaneHead=0;swimlaneBody=0;fillColor=none;collapsible=0;dropTarget=0;points=[[0,0.5],[1,0.5]];portConstraint=eastwest;top=0;left=0;right=0;bottom=0;" parent="_Bfm6WtnI7c3qEJHPDgw-43" vertex="1">
          <mxGeometry y="120" width="180" height="30" as="geometry" />
        </mxCell>
        <mxCell id="_Bfm6WtnI7c3qEJHPDgw-51" value="" style="shape=partialRectangle;connectable=0;fillColor=none;top=0;left=0;bottom=0;right=0;editable=1;overflow=hidden;whiteSpace=wrap;html=1;" parent="_Bfm6WtnI7c3qEJHPDgw-50" vertex="1">
          <mxGeometry width="30" height="30" as="geometry">
            <mxRectangle width="30" height="30" as="alternateBounds" />
          </mxGeometry>
        </mxCell>
        <mxCell id="_Bfm6WtnI7c3qEJHPDgw-52" value="NomeAdministrador" style="shape=partialRectangle;connectable=0;fillColor=none;top=0;left=0;bottom=0;right=0;align=left;spacingLeft=6;overflow=hidden;whiteSpace=wrap;html=1;" parent="_Bfm6WtnI7c3qEJHPDgw-50" vertex="1">
          <mxGeometry x="30" width="150" height="30" as="geometry">
            <mxRectangle width="150" height="30" as="alternateBounds" />
          </mxGeometry>
        </mxCell>
        <mxCell id="_Bfm6WtnI7c3qEJHPDgw-53" value="" style="shape=tableRow;horizontal=0;startSize=0;swimlaneHead=0;swimlaneBody=0;fillColor=none;collapsible=0;dropTarget=0;points=[[0,0.5],[1,0.5]];portConstraint=eastwest;top=0;left=0;right=0;bottom=0;" parent="_Bfm6WtnI7c3qEJHPDgw-43" vertex="1">
          <mxGeometry y="150" width="180" height="30" as="geometry" />
        </mxCell>
        <mxCell id="_Bfm6WtnI7c3qEJHPDgw-54" value="" style="shape=partialRectangle;connectable=0;fillColor=none;top=0;left=0;bottom=0;right=0;editable=1;overflow=hidden;whiteSpace=wrap;html=1;" parent="_Bfm6WtnI7c3qEJHPDgw-53" vertex="1">
          <mxGeometry width="30" height="30" as="geometry">
            <mxRectangle width="30" height="30" as="alternateBounds" />
          </mxGeometry>
        </mxCell>
        <mxCell id="_Bfm6WtnI7c3qEJHPDgw-55" value="Senha" style="shape=partialRectangle;connectable=0;fillColor=none;top=0;left=0;bottom=0;right=0;align=left;spacingLeft=6;overflow=hidden;whiteSpace=wrap;html=1;" parent="_Bfm6WtnI7c3qEJHPDgw-53" vertex="1">
          <mxGeometry x="30" width="150" height="30" as="geometry">
            <mxRectangle width="150" height="30" as="alternateBounds" />
          </mxGeometry>
        </mxCell>
        <mxCell id="_Bfm6WtnI7c3qEJHPDgw-77" value="Clinica" style="shape=table;startSize=30;container=1;collapsible=1;childLayout=tableLayout;fixedRows=1;rowLines=0;fontStyle=1;align=center;resizeLast=1;html=1;" parent="1" vertex="1">
          <mxGeometry x="-10" y="750" width="180" height="210" as="geometry" />
        </mxCell>
        <mxCell id="_Bfm6WtnI7c3qEJHPDgw-78" value="" style="shape=tableRow;horizontal=0;startSize=0;swimlaneHead=0;swimlaneBody=0;fillColor=none;collapsible=0;dropTarget=0;points=[[0,0.5],[1,0.5]];portConstraint=eastwest;top=0;left=0;right=0;bottom=1;" parent="_Bfm6WtnI7c3qEJHPDgw-77" vertex="1">
          <mxGeometry y="30" width="180" height="30" as="geometry" />
        </mxCell>
        <mxCell id="_Bfm6WtnI7c3qEJHPDgw-79" value="PK" style="shape=partialRectangle;connectable=0;fillColor=none;top=0;left=0;bottom=0;right=0;fontStyle=1;overflow=hidden;whiteSpace=wrap;html=1;" parent="_Bfm6WtnI7c3qEJHPDgw-78" vertex="1">
          <mxGeometry width="30" height="30" as="geometry">
            <mxRectangle width="30" height="30" as="alternateBounds" />
          </mxGeometry>
        </mxCell>
        <mxCell id="_Bfm6WtnI7c3qEJHPDgw-80" value="IdClinica" style="shape=partialRectangle;connectable=0;fillColor=none;top=0;left=0;bottom=0;right=0;align=left;spacingLeft=6;fontStyle=5;overflow=hidden;whiteSpace=wrap;html=1;" parent="_Bfm6WtnI7c3qEJHPDgw-78" vertex="1">
          <mxGeometry x="30" width="150" height="30" as="geometry">
            <mxRectangle width="150" height="30" as="alternateBounds" />
          </mxGeometry>
        </mxCell>
        <mxCell id="_Bfm6WtnI7c3qEJHPDgw-84" value="" style="shape=tableRow;horizontal=0;startSize=0;swimlaneHead=0;swimlaneBody=0;fillColor=none;collapsible=0;dropTarget=0;points=[[0,0.5],[1,0.5]];portConstraint=eastwest;top=0;left=0;right=0;bottom=0;" parent="_Bfm6WtnI7c3qEJHPDgw-77" vertex="1">
          <mxGeometry y="60" width="180" height="30" as="geometry" />
        </mxCell>
        <mxCell id="_Bfm6WtnI7c3qEJHPDgw-85" value="" style="shape=partialRectangle;connectable=0;fillColor=none;top=0;left=0;bottom=0;right=0;editable=1;overflow=hidden;whiteSpace=wrap;html=1;" parent="_Bfm6WtnI7c3qEJHPDgw-84" vertex="1">
          <mxGeometry width="30" height="30" as="geometry">
            <mxRectangle width="30" height="30" as="alternateBounds" />
          </mxGeometry>
        </mxCell>
        <mxCell id="_Bfm6WtnI7c3qEJHPDgw-86" value="CNPJ" style="shape=partialRectangle;connectable=0;fillColor=none;top=0;left=0;bottom=0;right=0;align=left;spacingLeft=6;overflow=hidden;whiteSpace=wrap;html=1;" parent="_Bfm6WtnI7c3qEJHPDgw-84" vertex="1">
          <mxGeometry x="30" width="150" height="30" as="geometry">
            <mxRectangle width="150" height="30" as="alternateBounds" />
          </mxGeometry>
        </mxCell>
        <mxCell id="_Bfm6WtnI7c3qEJHPDgw-87" value="" style="shape=tableRow;horizontal=0;startSize=0;swimlaneHead=0;swimlaneBody=0;fillColor=none;collapsible=0;dropTarget=0;points=[[0,0.5],[1,0.5]];portConstraint=eastwest;top=0;left=0;right=0;bottom=0;" parent="_Bfm6WtnI7c3qEJHPDgw-77" vertex="1">
          <mxGeometry y="90" width="180" height="30" as="geometry" />
        </mxCell>
        <mxCell id="_Bfm6WtnI7c3qEJHPDgw-88" value="" style="shape=partialRectangle;connectable=0;fillColor=none;top=0;left=0;bottom=0;right=0;editable=1;overflow=hidden;whiteSpace=wrap;html=1;" parent="_Bfm6WtnI7c3qEJHPDgw-87" vertex="1">
          <mxGeometry width="30" height="30" as="geometry">
            <mxRectangle width="30" height="30" as="alternateBounds" />
          </mxGeometry>
        </mxCell>
        <mxCell id="_Bfm6WtnI7c3qEJHPDgw-89" value="NomeFantasia" style="shape=partialRectangle;connectable=0;fillColor=none;top=0;left=0;bottom=0;right=0;align=left;spacingLeft=6;overflow=hidden;whiteSpace=wrap;html=1;" parent="_Bfm6WtnI7c3qEJHPDgw-87" vertex="1">
          <mxGeometry x="30" width="150" height="30" as="geometry">
            <mxRectangle width="150" height="30" as="alternateBounds" />
          </mxGeometry>
        </mxCell>
        <mxCell id="_Bfm6WtnI7c3qEJHPDgw-90" style="shape=tableRow;horizontal=0;startSize=0;swimlaneHead=0;swimlaneBody=0;fillColor=none;collapsible=0;dropTarget=0;points=[[0,0.5],[1,0.5]];portConstraint=eastwest;top=0;left=0;right=0;bottom=0;" parent="_Bfm6WtnI7c3qEJHPDgw-77" vertex="1">
          <mxGeometry y="120" width="180" height="30" as="geometry" />
        </mxCell>
        <mxCell id="_Bfm6WtnI7c3qEJHPDgw-91" style="shape=partialRectangle;connectable=0;fillColor=none;top=0;left=0;bottom=0;right=0;editable=1;overflow=hidden;whiteSpace=wrap;html=1;" parent="_Bfm6WtnI7c3qEJHPDgw-90" vertex="1">
          <mxGeometry width="30" height="30" as="geometry">
            <mxRectangle width="30" height="30" as="alternateBounds" />
          </mxGeometry>
        </mxCell>
        <mxCell id="_Bfm6WtnI7c3qEJHPDgw-92" value="RazaoSocial" style="shape=partialRectangle;connectable=0;fillColor=none;top=0;left=0;bottom=0;right=0;align=left;spacingLeft=6;overflow=hidden;whiteSpace=wrap;html=1;" parent="_Bfm6WtnI7c3qEJHPDgw-90" vertex="1">
          <mxGeometry x="30" width="150" height="30" as="geometry">
            <mxRectangle width="150" height="30" as="alternateBounds" />
          </mxGeometry>
        </mxCell>
        <mxCell id="_Bfm6WtnI7c3qEJHPDgw-93" style="shape=tableRow;horizontal=0;startSize=0;swimlaneHead=0;swimlaneBody=0;fillColor=none;collapsible=0;dropTarget=0;points=[[0,0.5],[1,0.5]];portConstraint=eastwest;top=0;left=0;right=0;bottom=0;" parent="_Bfm6WtnI7c3qEJHPDgw-77" vertex="1">
          <mxGeometry y="150" width="180" height="30" as="geometry" />
        </mxCell>
        <mxCell id="_Bfm6WtnI7c3qEJHPDgw-94" style="shape=partialRectangle;connectable=0;fillColor=none;top=0;left=0;bottom=0;right=0;editable=1;overflow=hidden;whiteSpace=wrap;html=1;" parent="_Bfm6WtnI7c3qEJHPDgw-93" vertex="1">
          <mxGeometry width="30" height="30" as="geometry">
            <mxRectangle width="30" height="30" as="alternateBounds" />
          </mxGeometry>
        </mxCell>
        <mxCell id="_Bfm6WtnI7c3qEJHPDgw-95" value="HorarioFuncionamento" style="shape=partialRectangle;connectable=0;fillColor=none;top=0;left=0;bottom=0;right=0;align=left;spacingLeft=6;overflow=hidden;whiteSpace=wrap;html=1;" parent="_Bfm6WtnI7c3qEJHPDgw-93" vertex="1">
          <mxGeometry x="30" width="150" height="30" as="geometry">
            <mxRectangle width="150" height="30" as="alternateBounds" />
          </mxGeometry>
        </mxCell>
        <mxCell id="_Bfm6WtnI7c3qEJHPDgw-96" style="shape=tableRow;horizontal=0;startSize=0;swimlaneHead=0;swimlaneBody=0;fillColor=none;collapsible=0;dropTarget=0;points=[[0,0.5],[1,0.5]];portConstraint=eastwest;top=0;left=0;right=0;bottom=0;" parent="_Bfm6WtnI7c3qEJHPDgw-77" vertex="1">
          <mxGeometry y="180" width="180" height="30" as="geometry" />
        </mxCell>
        <mxCell id="_Bfm6WtnI7c3qEJHPDgw-97" style="shape=partialRectangle;connectable=0;fillColor=none;top=0;left=0;bottom=0;right=0;editable=1;overflow=hidden;whiteSpace=wrap;html=1;" parent="_Bfm6WtnI7c3qEJHPDgw-96" vertex="1">
          <mxGeometry width="30" height="30" as="geometry">
            <mxRectangle width="30" height="30" as="alternateBounds" />
          </mxGeometry>
        </mxCell>
        <mxCell id="_Bfm6WtnI7c3qEJHPDgw-98" value="Endereco" style="shape=partialRectangle;connectable=0;fillColor=none;top=0;left=0;bottom=0;right=0;align=left;spacingLeft=6;overflow=hidden;whiteSpace=wrap;html=1;" parent="_Bfm6WtnI7c3qEJHPDgw-96" vertex="1">
          <mxGeometry x="30" width="150" height="30" as="geometry">
            <mxRectangle width="150" height="30" as="alternateBounds" />
          </mxGeometry>
        </mxCell>
        <mxCell id="_Bfm6WtnI7c3qEJHPDgw-99" value="Medico" style="shape=table;startSize=30;container=1;collapsible=1;childLayout=tableLayout;fixedRows=1;rowLines=0;fontStyle=1;align=center;resizeLast=1;html=1;" parent="1" vertex="1">
          <mxGeometry x="247" y="745" width="180" height="210" as="geometry" />
        </mxCell>
        <mxCell id="_Bfm6WtnI7c3qEJHPDgw-100" value="" style="shape=tableRow;horizontal=0;startSize=0;swimlaneHead=0;swimlaneBody=0;fillColor=none;collapsible=0;dropTarget=0;points=[[0,0.5],[1,0.5]];portConstraint=eastwest;top=0;left=0;right=0;bottom=1;" parent="_Bfm6WtnI7c3qEJHPDgw-99" vertex="1">
          <mxGeometry y="30" width="180" height="30" as="geometry" />
        </mxCell>
        <mxCell id="_Bfm6WtnI7c3qEJHPDgw-101" value="PK" style="shape=partialRectangle;connectable=0;fillColor=none;top=0;left=0;bottom=0;right=0;fontStyle=1;overflow=hidden;whiteSpace=wrap;html=1;" parent="_Bfm6WtnI7c3qEJHPDgw-100" vertex="1">
          <mxGeometry width="30" height="30" as="geometry">
            <mxRectangle width="30" height="30" as="alternateBounds" />
          </mxGeometry>
        </mxCell>
        <mxCell id="_Bfm6WtnI7c3qEJHPDgw-102" value="IdMedico" style="shape=partialRectangle;connectable=0;fillColor=none;top=0;left=0;bottom=0;right=0;align=left;spacingLeft=6;fontStyle=5;overflow=hidden;whiteSpace=wrap;html=1;" parent="_Bfm6WtnI7c3qEJHPDgw-100" vertex="1">
          <mxGeometry x="30" width="150" height="30" as="geometry">
            <mxRectangle width="150" height="30" as="alternateBounds" />
          </mxGeometry>
        </mxCell>
        <mxCell id="_Bfm6WtnI7c3qEJHPDgw-103" style="shape=tableRow;horizontal=0;startSize=0;swimlaneHead=0;swimlaneBody=0;fillColor=none;collapsible=0;dropTarget=0;points=[[0,0.5],[1,0.5]];portConstraint=eastwest;top=0;left=0;right=0;bottom=1;" parent="_Bfm6WtnI7c3qEJHPDgw-99" vertex="1">
          <mxGeometry y="60" width="180" height="30" as="geometry" />
        </mxCell>
        <mxCell id="_Bfm6WtnI7c3qEJHPDgw-104" value="FK" style="shape=partialRectangle;connectable=0;fillColor=none;top=0;left=0;bottom=0;right=0;fontStyle=1;overflow=hidden;whiteSpace=wrap;html=1;" parent="_Bfm6WtnI7c3qEJHPDgw-103" vertex="1">
          <mxGeometry width="30" height="30" as="geometry">
            <mxRectangle width="30" height="30" as="alternateBounds" />
          </mxGeometry>
        </mxCell>
        <mxCell id="_Bfm6WtnI7c3qEJHPDgw-105" value="IdClinica" style="shape=partialRectangle;connectable=0;fillColor=none;top=0;left=0;bottom=0;right=0;align=left;spacingLeft=6;fontStyle=5;overflow=hidden;whiteSpace=wrap;html=1;" parent="_Bfm6WtnI7c3qEJHPDgw-103" vertex="1">
          <mxGeometry x="30" width="150" height="30" as="geometry">
            <mxRectangle width="150" height="30" as="alternateBounds" />
          </mxGeometry>
        </mxCell>
        <mxCell id="qcG-YsEcirUFTlGkKuyn-110" style="shape=tableRow;horizontal=0;startSize=0;swimlaneHead=0;swimlaneBody=0;fillColor=none;collapsible=0;dropTarget=0;points=[[0,0.5],[1,0.5]];portConstraint=eastwest;top=0;left=0;right=0;bottom=1;" parent="_Bfm6WtnI7c3qEJHPDgw-99" vertex="1">
          <mxGeometry y="90" width="180" height="30" as="geometry" />
        </mxCell>
        <mxCell id="qcG-YsEcirUFTlGkKuyn-111" value="FK" style="shape=partialRectangle;connectable=0;fillColor=none;top=0;left=0;bottom=0;right=0;fontStyle=1;overflow=hidden;whiteSpace=wrap;html=1;" parent="qcG-YsEcirUFTlGkKuyn-110" vertex="1">
          <mxGeometry width="30" height="30" as="geometry">
            <mxRectangle width="30" height="30" as="alternateBounds" />
          </mxGeometry>
        </mxCell>
        <mxCell id="qcG-YsEcirUFTlGkKuyn-112" value="IdUsuario" style="shape=partialRectangle;connectable=0;fillColor=none;top=0;left=0;bottom=0;right=0;align=left;spacingLeft=6;fontStyle=5;overflow=hidden;whiteSpace=wrap;html=1;" parent="qcG-YsEcirUFTlGkKuyn-110" vertex="1">
          <mxGeometry x="30" width="150" height="30" as="geometry">
            <mxRectangle width="150" height="30" as="alternateBounds" />
          </mxGeometry>
        </mxCell>
        <mxCell id="_Bfm6WtnI7c3qEJHPDgw-106" value="" style="shape=tableRow;horizontal=0;startSize=0;swimlaneHead=0;swimlaneBody=0;fillColor=none;collapsible=0;dropTarget=0;points=[[0,0.5],[1,0.5]];portConstraint=eastwest;top=0;left=0;right=0;bottom=0;" parent="_Bfm6WtnI7c3qEJHPDgw-99" vertex="1">
          <mxGeometry y="120" width="180" height="30" as="geometry" />
        </mxCell>
        <mxCell id="_Bfm6WtnI7c3qEJHPDgw-107" value="" style="shape=partialRectangle;connectable=0;fillColor=none;top=0;left=0;bottom=0;right=0;editable=1;overflow=hidden;whiteSpace=wrap;html=1;" parent="_Bfm6WtnI7c3qEJHPDgw-106" vertex="1">
          <mxGeometry width="30" height="30" as="geometry">
            <mxRectangle width="30" height="30" as="alternateBounds" />
          </mxGeometry>
        </mxCell>
        <mxCell id="_Bfm6WtnI7c3qEJHPDgw-108" value="NomeMedico" style="shape=partialRectangle;connectable=0;fillColor=none;top=0;left=0;bottom=0;right=0;align=left;spacingLeft=6;overflow=hidden;whiteSpace=wrap;html=1;" parent="_Bfm6WtnI7c3qEJHPDgw-106" vertex="1">
          <mxGeometry x="30" width="150" height="30" as="geometry">
            <mxRectangle width="150" height="30" as="alternateBounds" />
          </mxGeometry>
        </mxCell>
        <mxCell id="_Bfm6WtnI7c3qEJHPDgw-109" value="" style="shape=tableRow;horizontal=0;startSize=0;swimlaneHead=0;swimlaneBody=0;fillColor=none;collapsible=0;dropTarget=0;points=[[0,0.5],[1,0.5]];portConstraint=eastwest;top=0;left=0;right=0;bottom=0;" parent="_Bfm6WtnI7c3qEJHPDgw-99" vertex="1">
          <mxGeometry y="150" width="180" height="30" as="geometry" />
        </mxCell>
        <mxCell id="_Bfm6WtnI7c3qEJHPDgw-110" value="" style="shape=partialRectangle;connectable=0;fillColor=none;top=0;left=0;bottom=0;right=0;editable=1;overflow=hidden;whiteSpace=wrap;html=1;" parent="_Bfm6WtnI7c3qEJHPDgw-109" vertex="1">
          <mxGeometry width="30" height="30" as="geometry">
            <mxRectangle width="30" height="30" as="alternateBounds" />
          </mxGeometry>
        </mxCell>
        <mxCell id="_Bfm6WtnI7c3qEJHPDgw-111" value="CRM" style="shape=partialRectangle;connectable=0;fillColor=none;top=0;left=0;bottom=0;right=0;align=left;spacingLeft=6;overflow=hidden;whiteSpace=wrap;html=1;" parent="_Bfm6WtnI7c3qEJHPDgw-109" vertex="1">
          <mxGeometry x="30" width="150" height="30" as="geometry">
            <mxRectangle width="150" height="30" as="alternateBounds" />
          </mxGeometry>
        </mxCell>
        <mxCell id="_Bfm6WtnI7c3qEJHPDgw-147" style="shape=tableRow;horizontal=0;startSize=0;swimlaneHead=0;swimlaneBody=0;fillColor=none;collapsible=0;dropTarget=0;points=[[0,0.5],[1,0.5]];portConstraint=eastwest;top=0;left=0;right=0;bottom=0;" parent="_Bfm6WtnI7c3qEJHPDgw-99" vertex="1">
          <mxGeometry y="180" width="180" height="30" as="geometry" />
        </mxCell>
        <mxCell id="_Bfm6WtnI7c3qEJHPDgw-148" value="" style="shape=partialRectangle;connectable=0;fillColor=none;top=0;left=0;bottom=0;right=0;editable=1;overflow=hidden;whiteSpace=wrap;html=1;" parent="_Bfm6WtnI7c3qEJHPDgw-147" vertex="1">
          <mxGeometry width="30" height="30" as="geometry">
            <mxRectangle width="30" height="30" as="alternateBounds" />
          </mxGeometry>
        </mxCell>
        <mxCell id="_Bfm6WtnI7c3qEJHPDgw-149" value="Especializacao" style="shape=partialRectangle;connectable=0;fillColor=none;top=0;left=0;bottom=0;right=0;align=left;spacingLeft=6;overflow=hidden;whiteSpace=wrap;html=1;" parent="_Bfm6WtnI7c3qEJHPDgw-147" vertex="1">
          <mxGeometry x="30" width="150" height="30" as="geometry">
            <mxRectangle width="150" height="30" as="alternateBounds" />
          </mxGeometry>
        </mxCell>
        <mxCell id="_Bfm6WtnI7c3qEJHPDgw-115" value="Paciente" style="shape=table;startSize=30;container=1;collapsible=1;childLayout=tableLayout;fixedRows=1;rowLines=0;fontStyle=1;align=center;resizeLast=1;html=1;" parent="1" vertex="1">
          <mxGeometry x="580" y="745" width="180" height="180" as="geometry" />
        </mxCell>
        <mxCell id="_Bfm6WtnI7c3qEJHPDgw-116" value="" style="shape=tableRow;horizontal=0;startSize=0;swimlaneHead=0;swimlaneBody=0;fillColor=none;collapsible=0;dropTarget=0;points=[[0,0.5],[1,0.5]];portConstraint=eastwest;top=0;left=0;right=0;bottom=1;" parent="_Bfm6WtnI7c3qEJHPDgw-115" vertex="1">
          <mxGeometry y="30" width="180" height="30" as="geometry" />
        </mxCell>
        <mxCell id="_Bfm6WtnI7c3qEJHPDgw-117" value="PK" style="shape=partialRectangle;connectable=0;fillColor=none;top=0;left=0;bottom=0;right=0;fontStyle=1;overflow=hidden;whiteSpace=wrap;html=1;" parent="_Bfm6WtnI7c3qEJHPDgw-116" vertex="1">
          <mxGeometry width="30" height="30" as="geometry">
            <mxRectangle width="30" height="30" as="alternateBounds" />
          </mxGeometry>
        </mxCell>
        <mxCell id="_Bfm6WtnI7c3qEJHPDgw-118" value="IdPaciente" style="shape=partialRectangle;connectable=0;fillColor=none;top=0;left=0;bottom=0;right=0;align=left;spacingLeft=6;fontStyle=5;overflow=hidden;whiteSpace=wrap;html=1;" parent="_Bfm6WtnI7c3qEJHPDgw-116" vertex="1">
          <mxGeometry x="30" width="150" height="30" as="geometry">
            <mxRectangle width="150" height="30" as="alternateBounds" />
          </mxGeometry>
        </mxCell>
        <mxCell id="qcG-YsEcirUFTlGkKuyn-107" style="shape=tableRow;horizontal=0;startSize=0;swimlaneHead=0;swimlaneBody=0;fillColor=none;collapsible=0;dropTarget=0;points=[[0,0.5],[1,0.5]];portConstraint=eastwest;top=0;left=0;right=0;bottom=1;" parent="_Bfm6WtnI7c3qEJHPDgw-115" vertex="1">
          <mxGeometry y="60" width="180" height="30" as="geometry" />
        </mxCell>
        <mxCell id="qcG-YsEcirUFTlGkKuyn-108" value="FK" style="shape=partialRectangle;connectable=0;fillColor=none;top=0;left=0;bottom=0;right=0;fontStyle=1;overflow=hidden;whiteSpace=wrap;html=1;" parent="qcG-YsEcirUFTlGkKuyn-107" vertex="1">
          <mxGeometry width="30" height="30" as="geometry">
            <mxRectangle width="30" height="30" as="alternateBounds" />
          </mxGeometry>
        </mxCell>
        <mxCell id="qcG-YsEcirUFTlGkKuyn-109" value="IdUsuario" style="shape=partialRectangle;connectable=0;fillColor=none;top=0;left=0;bottom=0;right=0;align=left;spacingLeft=6;fontStyle=5;overflow=hidden;whiteSpace=wrap;html=1;" parent="qcG-YsEcirUFTlGkKuyn-107" vertex="1">
          <mxGeometry x="30" width="150" height="30" as="geometry">
            <mxRectangle width="150" height="30" as="alternateBounds" />
          </mxGeometry>
        </mxCell>
        <mxCell id="_Bfm6WtnI7c3qEJHPDgw-125" value="" style="shape=tableRow;horizontal=0;startSize=0;swimlaneHead=0;swimlaneBody=0;fillColor=none;collapsible=0;dropTarget=0;points=[[0,0.5],[1,0.5]];portConstraint=eastwest;top=0;left=0;right=0;bottom=0;" parent="_Bfm6WtnI7c3qEJHPDgw-115" vertex="1">
          <mxGeometry y="90" width="180" height="30" as="geometry" />
        </mxCell>
        <mxCell id="_Bfm6WtnI7c3qEJHPDgw-126" value="" style="shape=partialRectangle;connectable=0;fillColor=none;top=0;left=0;bottom=0;right=0;editable=1;overflow=hidden;whiteSpace=wrap;html=1;" parent="_Bfm6WtnI7c3qEJHPDgw-125" vertex="1">
          <mxGeometry width="30" height="30" as="geometry">
            <mxRectangle width="30" height="30" as="alternateBounds" />
          </mxGeometry>
        </mxCell>
        <mxCell id="_Bfm6WtnI7c3qEJHPDgw-127" value="NomePaciente" style="shape=partialRectangle;connectable=0;fillColor=none;top=0;left=0;bottom=0;right=0;align=left;spacingLeft=6;overflow=hidden;whiteSpace=wrap;html=1;" parent="_Bfm6WtnI7c3qEJHPDgw-125" vertex="1">
          <mxGeometry x="30" width="150" height="30" as="geometry">
            <mxRectangle width="150" height="30" as="alternateBounds" />
          </mxGeometry>
        </mxCell>
        <mxCell id="YByUXClHuIxj8sc11FLs-31" style="shape=tableRow;horizontal=0;startSize=0;swimlaneHead=0;swimlaneBody=0;fillColor=none;collapsible=0;dropTarget=0;points=[[0,0.5],[1,0.5]];portConstraint=eastwest;top=0;left=0;right=0;bottom=0;" parent="_Bfm6WtnI7c3qEJHPDgw-115" vertex="1">
          <mxGeometry y="120" width="180" height="30" as="geometry" />
        </mxCell>
        <mxCell id="YByUXClHuIxj8sc11FLs-32" style="shape=partialRectangle;connectable=0;fillColor=none;top=0;left=0;bottom=0;right=0;editable=1;overflow=hidden;whiteSpace=wrap;html=1;" parent="YByUXClHuIxj8sc11FLs-31" vertex="1">
          <mxGeometry width="30" height="30" as="geometry">
            <mxRectangle width="30" height="30" as="alternateBounds" />
          </mxGeometry>
        </mxCell>
        <mxCell id="YByUXClHuIxj8sc11FLs-33" value="Idade" style="shape=partialRectangle;connectable=0;fillColor=none;top=0;left=0;bottom=0;right=0;align=left;spacingLeft=6;overflow=hidden;whiteSpace=wrap;html=1;" parent="YByUXClHuIxj8sc11FLs-31" vertex="1">
          <mxGeometry x="30" width="150" height="30" as="geometry">
            <mxRectangle width="150" height="30" as="alternateBounds" />
          </mxGeometry>
        </mxCell>
        <mxCell id="_Bfm6WtnI7c3qEJHPDgw-128" value="" style="shape=tableRow;horizontal=0;startSize=0;swimlaneHead=0;swimlaneBody=0;fillColor=none;collapsible=0;dropTarget=0;points=[[0,0.5],[1,0.5]];portConstraint=eastwest;top=0;left=0;right=0;bottom=0;" parent="_Bfm6WtnI7c3qEJHPDgw-115" vertex="1">
          <mxGeometry y="150" width="180" height="30" as="geometry" />
        </mxCell>
        <mxCell id="_Bfm6WtnI7c3qEJHPDgw-129" value="" style="shape=partialRectangle;connectable=0;fillColor=none;top=0;left=0;bottom=0;right=0;editable=1;overflow=hidden;whiteSpace=wrap;html=1;" parent="_Bfm6WtnI7c3qEJHPDgw-128" vertex="1">
          <mxGeometry width="30" height="30" as="geometry">
            <mxRectangle width="30" height="30" as="alternateBounds" />
          </mxGeometry>
        </mxCell>
        <mxCell id="_Bfm6WtnI7c3qEJHPDgw-130" value="Descricao" style="shape=partialRectangle;connectable=0;fillColor=none;top=0;left=0;bottom=0;right=0;align=left;spacingLeft=6;overflow=hidden;whiteSpace=wrap;html=1;" parent="_Bfm6WtnI7c3qEJHPDgw-128" vertex="1">
          <mxGeometry x="30" width="150" height="30" as="geometry">
            <mxRectangle width="150" height="30" as="alternateBounds" />
          </mxGeometry>
        </mxCell>
        <mxCell id="_Bfm6WtnI7c3qEJHPDgw-131" value="Consulta" style="shape=table;startSize=30;container=1;collapsible=1;childLayout=tableLayout;fixedRows=1;rowLines=0;fontStyle=1;align=center;resizeLast=1;html=1;" parent="1" vertex="1">
          <mxGeometry x="240" y="980" width="180" height="180" as="geometry" />
        </mxCell>
        <mxCell id="_Bfm6WtnI7c3qEJHPDgw-132" value="" style="shape=tableRow;horizontal=0;startSize=0;swimlaneHead=0;swimlaneBody=0;fillColor=none;collapsible=0;dropTarget=0;points=[[0,0.5],[1,0.5]];portConstraint=eastwest;top=0;left=0;right=0;bottom=1;" parent="_Bfm6WtnI7c3qEJHPDgw-131" vertex="1">
          <mxGeometry y="30" width="180" height="30" as="geometry" />
        </mxCell>
        <mxCell id="_Bfm6WtnI7c3qEJHPDgw-133" value="PK" style="shape=partialRectangle;connectable=0;fillColor=none;top=0;left=0;bottom=0;right=0;fontStyle=1;overflow=hidden;whiteSpace=wrap;html=1;" parent="_Bfm6WtnI7c3qEJHPDgw-132" vertex="1">
          <mxGeometry width="30" height="30" as="geometry">
            <mxRectangle width="30" height="30" as="alternateBounds" />
          </mxGeometry>
        </mxCell>
        <mxCell id="_Bfm6WtnI7c3qEJHPDgw-134" value="IdConsulta" style="shape=partialRectangle;connectable=0;fillColor=none;top=0;left=0;bottom=0;right=0;align=left;spacingLeft=6;fontStyle=5;overflow=hidden;whiteSpace=wrap;html=1;" parent="_Bfm6WtnI7c3qEJHPDgw-132" vertex="1">
          <mxGeometry x="30" width="150" height="30" as="geometry">
            <mxRectangle width="150" height="30" as="alternateBounds" />
          </mxGeometry>
        </mxCell>
        <mxCell id="_Bfm6WtnI7c3qEJHPDgw-135" style="shape=tableRow;horizontal=0;startSize=0;swimlaneHead=0;swimlaneBody=0;fillColor=none;collapsible=0;dropTarget=0;points=[[0,0.5],[1,0.5]];portConstraint=eastwest;top=0;left=0;right=0;bottom=1;" parent="_Bfm6WtnI7c3qEJHPDgw-131" vertex="1">
          <mxGeometry y="60" width="180" height="30" as="geometry" />
        </mxCell>
        <mxCell id="_Bfm6WtnI7c3qEJHPDgw-136" value="FK" style="shape=partialRectangle;connectable=0;fillColor=none;top=0;left=0;bottom=0;right=0;fontStyle=1;overflow=hidden;whiteSpace=wrap;html=1;" parent="_Bfm6WtnI7c3qEJHPDgw-135" vertex="1">
          <mxGeometry width="30" height="30" as="geometry">
            <mxRectangle width="30" height="30" as="alternateBounds" />
          </mxGeometry>
        </mxCell>
        <mxCell id="_Bfm6WtnI7c3qEJHPDgw-137" value="IdMedico" style="shape=partialRectangle;connectable=0;fillColor=none;top=0;left=0;bottom=0;right=0;align=left;spacingLeft=6;fontStyle=5;overflow=hidden;whiteSpace=wrap;html=1;" parent="_Bfm6WtnI7c3qEJHPDgw-135" vertex="1">
          <mxGeometry x="30" width="150" height="30" as="geometry">
            <mxRectangle width="150" height="30" as="alternateBounds" />
          </mxGeometry>
        </mxCell>
        <mxCell id="_Bfm6WtnI7c3qEJHPDgw-144" style="shape=tableRow;horizontal=0;startSize=0;swimlaneHead=0;swimlaneBody=0;fillColor=none;collapsible=0;dropTarget=0;points=[[0,0.5],[1,0.5]];portConstraint=eastwest;top=0;left=0;right=0;bottom=1;" parent="_Bfm6WtnI7c3qEJHPDgw-131" vertex="1">
          <mxGeometry y="90" width="180" height="30" as="geometry" />
        </mxCell>
        <mxCell id="_Bfm6WtnI7c3qEJHPDgw-145" value="FK" style="shape=partialRectangle;connectable=0;fillColor=none;top=0;left=0;bottom=0;right=0;fontStyle=1;overflow=hidden;whiteSpace=wrap;html=1;" parent="_Bfm6WtnI7c3qEJHPDgw-144" vertex="1">
          <mxGeometry width="30" height="30" as="geometry">
            <mxRectangle width="30" height="30" as="alternateBounds" />
          </mxGeometry>
        </mxCell>
        <mxCell id="_Bfm6WtnI7c3qEJHPDgw-146" value="IdPaciente" style="shape=partialRectangle;connectable=0;fillColor=none;top=0;left=0;bottom=0;right=0;align=left;spacingLeft=6;fontStyle=5;overflow=hidden;whiteSpace=wrap;html=1;" parent="_Bfm6WtnI7c3qEJHPDgw-144" vertex="1">
          <mxGeometry x="30" width="150" height="30" as="geometry">
            <mxRectangle width="150" height="30" as="alternateBounds" />
          </mxGeometry>
        </mxCell>
        <mxCell id="_Bfm6WtnI7c3qEJHPDgw-138" value="" style="shape=tableRow;horizontal=0;startSize=0;swimlaneHead=0;swimlaneBody=0;fillColor=none;collapsible=0;dropTarget=0;points=[[0,0.5],[1,0.5]];portConstraint=eastwest;top=0;left=0;right=0;bottom=0;" parent="_Bfm6WtnI7c3qEJHPDgw-131" vertex="1">
          <mxGeometry y="120" width="180" height="30" as="geometry" />
        </mxCell>
        <mxCell id="_Bfm6WtnI7c3qEJHPDgw-139" value="" style="shape=partialRectangle;connectable=0;fillColor=none;top=0;left=0;bottom=0;right=0;editable=1;overflow=hidden;whiteSpace=wrap;html=1;" parent="_Bfm6WtnI7c3qEJHPDgw-138" vertex="1">
          <mxGeometry width="30" height="30" as="geometry">
            <mxRectangle width="30" height="30" as="alternateBounds" />
          </mxGeometry>
        </mxCell>
        <mxCell id="_Bfm6WtnI7c3qEJHPDgw-140" value="DataConsulta" style="shape=partialRectangle;connectable=0;fillColor=none;top=0;left=0;bottom=0;right=0;align=left;spacingLeft=6;overflow=hidden;whiteSpace=wrap;html=1;" parent="_Bfm6WtnI7c3qEJHPDgw-138" vertex="1">
          <mxGeometry x="30" width="150" height="30" as="geometry">
            <mxRectangle width="150" height="30" as="alternateBounds" />
          </mxGeometry>
        </mxCell>
        <mxCell id="_Bfm6WtnI7c3qEJHPDgw-141" value="" style="shape=tableRow;horizontal=0;startSize=0;swimlaneHead=0;swimlaneBody=0;fillColor=none;collapsible=0;dropTarget=0;points=[[0,0.5],[1,0.5]];portConstraint=eastwest;top=0;left=0;right=0;bottom=0;" parent="_Bfm6WtnI7c3qEJHPDgw-131" vertex="1">
          <mxGeometry y="150" width="180" height="30" as="geometry" />
        </mxCell>
        <mxCell id="_Bfm6WtnI7c3qEJHPDgw-142" value="" style="shape=partialRectangle;connectable=0;fillColor=none;top=0;left=0;bottom=0;right=0;editable=1;overflow=hidden;whiteSpace=wrap;html=1;" parent="_Bfm6WtnI7c3qEJHPDgw-141" vertex="1">
          <mxGeometry width="30" height="30" as="geometry">
            <mxRectangle width="30" height="30" as="alternateBounds" />
          </mxGeometry>
        </mxCell>
        <mxCell id="_Bfm6WtnI7c3qEJHPDgw-143" value="HoraDaConsulta" style="shape=partialRectangle;connectable=0;fillColor=none;top=0;left=0;bottom=0;right=0;align=left;spacingLeft=6;overflow=hidden;whiteSpace=wrap;html=1;" parent="_Bfm6WtnI7c3qEJHPDgw-141" vertex="1">
          <mxGeometry x="30" width="150" height="30" as="geometry">
            <mxRectangle width="150" height="30" as="alternateBounds" />
          </mxGeometry>
        </mxCell>
        <mxCell id="YByUXClHuIxj8sc11FLs-3" value="FeedBack" style="shape=table;startSize=30;container=1;collapsible=1;childLayout=tableLayout;fixedRows=1;rowLines=0;fontStyle=1;align=center;resizeLast=1;html=1;" parent="1" vertex="1">
          <mxGeometry x="580" y="1000" width="180" height="180" as="geometry" />
        </mxCell>
        <mxCell id="YByUXClHuIxj8sc11FLs-4" value="" style="shape=tableRow;horizontal=0;startSize=0;swimlaneHead=0;swimlaneBody=0;fillColor=none;collapsible=0;dropTarget=0;points=[[0,0.5],[1,0.5]];portConstraint=eastwest;top=0;left=0;right=0;bottom=1;" parent="YByUXClHuIxj8sc11FLs-3" vertex="1">
          <mxGeometry y="30" width="180" height="30" as="geometry" />
        </mxCell>
        <mxCell id="YByUXClHuIxj8sc11FLs-5" value="PK" style="shape=partialRectangle;connectable=0;fillColor=none;top=0;left=0;bottom=0;right=0;fontStyle=1;overflow=hidden;whiteSpace=wrap;html=1;" parent="YByUXClHuIxj8sc11FLs-4" vertex="1">
          <mxGeometry width="30" height="30" as="geometry">
            <mxRectangle width="30" height="30" as="alternateBounds" />
          </mxGeometry>
        </mxCell>
        <mxCell id="YByUXClHuIxj8sc11FLs-6" value="IdFeedback" style="shape=partialRectangle;connectable=0;fillColor=none;top=0;left=0;bottom=0;right=0;align=left;spacingLeft=6;fontStyle=5;overflow=hidden;whiteSpace=wrap;html=1;" parent="YByUXClHuIxj8sc11FLs-4" vertex="1">
          <mxGeometry x="30" width="150" height="30" as="geometry">
            <mxRectangle width="150" height="30" as="alternateBounds" />
          </mxGeometry>
        </mxCell>
        <mxCell id="YByUXClHuIxj8sc11FLs-7" style="shape=tableRow;horizontal=0;startSize=0;swimlaneHead=0;swimlaneBody=0;fillColor=none;collapsible=0;dropTarget=0;points=[[0,0.5],[1,0.5]];portConstraint=eastwest;top=0;left=0;right=0;bottom=1;" parent="YByUXClHuIxj8sc11FLs-3" vertex="1">
          <mxGeometry y="60" width="180" height="30" as="geometry" />
        </mxCell>
        <mxCell id="YByUXClHuIxj8sc11FLs-8" value="FK" style="shape=partialRectangle;connectable=0;fillColor=none;top=0;left=0;bottom=0;right=0;fontStyle=1;overflow=hidden;whiteSpace=wrap;html=1;" parent="YByUXClHuIxj8sc11FLs-7" vertex="1">
          <mxGeometry width="30" height="30" as="geometry">
            <mxRectangle width="30" height="30" as="alternateBounds" />
          </mxGeometry>
        </mxCell>
        <mxCell id="YByUXClHuIxj8sc11FLs-9" value="IdPaciente" style="shape=partialRectangle;connectable=0;fillColor=none;top=0;left=0;bottom=0;right=0;align=left;spacingLeft=6;fontStyle=5;overflow=hidden;whiteSpace=wrap;html=1;" parent="YByUXClHuIxj8sc11FLs-7" vertex="1">
          <mxGeometry x="30" width="150" height="30" as="geometry">
            <mxRectangle width="150" height="30" as="alternateBounds" />
          </mxGeometry>
        </mxCell>
        <mxCell id="lY7QXQuWgSSP3nP7NDn2-1" style="shape=tableRow;horizontal=0;startSize=0;swimlaneHead=0;swimlaneBody=0;fillColor=none;collapsible=0;dropTarget=0;points=[[0,0.5],[1,0.5]];portConstraint=eastwest;top=0;left=0;right=0;bottom=1;" parent="YByUXClHuIxj8sc11FLs-3" vertex="1">
          <mxGeometry y="90" width="180" height="30" as="geometry" />
        </mxCell>
        <mxCell id="lY7QXQuWgSSP3nP7NDn2-2" value="FK" style="shape=partialRectangle;connectable=0;fillColor=none;top=0;left=0;bottom=0;right=0;fontStyle=1;overflow=hidden;whiteSpace=wrap;html=1;" parent="lY7QXQuWgSSP3nP7NDn2-1" vertex="1">
          <mxGeometry width="30" height="30" as="geometry">
            <mxRectangle width="30" height="30" as="alternateBounds" />
          </mxGeometry>
        </mxCell>
        <mxCell id="lY7QXQuWgSSP3nP7NDn2-3" value="IdConsulta" style="shape=partialRectangle;connectable=0;fillColor=none;top=0;left=0;bottom=0;right=0;align=left;spacingLeft=6;fontStyle=5;overflow=hidden;whiteSpace=wrap;html=1;" parent="lY7QXQuWgSSP3nP7NDn2-1" vertex="1">
          <mxGeometry x="30" width="150" height="30" as="geometry">
            <mxRectangle width="150" height="30" as="alternateBounds" />
          </mxGeometry>
        </mxCell>
        <mxCell id="YByUXClHuIxj8sc11FLs-10" value="" style="shape=tableRow;horizontal=0;startSize=0;swimlaneHead=0;swimlaneBody=0;fillColor=none;collapsible=0;dropTarget=0;points=[[0,0.5],[1,0.5]];portConstraint=eastwest;top=0;left=0;right=0;bottom=0;" parent="YByUXClHuIxj8sc11FLs-3" vertex="1">
          <mxGeometry y="120" width="180" height="30" as="geometry" />
        </mxCell>
        <mxCell id="YByUXClHuIxj8sc11FLs-11" value="" style="shape=partialRectangle;connectable=0;fillColor=none;top=0;left=0;bottom=0;right=0;editable=1;overflow=hidden;whiteSpace=wrap;html=1;" parent="YByUXClHuIxj8sc11FLs-10" vertex="1">
          <mxGeometry width="30" height="30" as="geometry">
            <mxRectangle width="30" height="30" as="alternateBounds" />
          </mxGeometry>
        </mxCell>
        <mxCell id="YByUXClHuIxj8sc11FLs-12" value="Exibe" style="shape=partialRectangle;connectable=0;fillColor=none;top=0;left=0;bottom=0;right=0;align=left;spacingLeft=6;overflow=hidden;whiteSpace=wrap;html=1;" parent="YByUXClHuIxj8sc11FLs-10" vertex="1">
          <mxGeometry x="30" width="150" height="30" as="geometry">
            <mxRectangle width="150" height="30" as="alternateBounds" />
          </mxGeometry>
        </mxCell>
        <mxCell id="YByUXClHuIxj8sc11FLs-13" value="" style="shape=tableRow;horizontal=0;startSize=0;swimlaneHead=0;swimlaneBody=0;fillColor=none;collapsible=0;dropTarget=0;points=[[0,0.5],[1,0.5]];portConstraint=eastwest;top=0;left=0;right=0;bottom=0;" parent="YByUXClHuIxj8sc11FLs-3" vertex="1">
          <mxGeometry y="150" width="180" height="30" as="geometry" />
        </mxCell>
        <mxCell id="YByUXClHuIxj8sc11FLs-14" value="" style="shape=partialRectangle;connectable=0;fillColor=none;top=0;left=0;bottom=0;right=0;editable=1;overflow=hidden;whiteSpace=wrap;html=1;" parent="YByUXClHuIxj8sc11FLs-13" vertex="1">
          <mxGeometry width="30" height="30" as="geometry">
            <mxRectangle width="30" height="30" as="alternateBounds" />
          </mxGeometry>
        </mxCell>
        <mxCell id="YByUXClHuIxj8sc11FLs-15" value="Descricao" style="shape=partialRectangle;connectable=0;fillColor=none;top=0;left=0;bottom=0;right=0;align=left;spacingLeft=6;overflow=hidden;whiteSpace=wrap;html=1;" parent="YByUXClHuIxj8sc11FLs-13" vertex="1">
          <mxGeometry x="30" width="150" height="30" as="geometry">
            <mxRectangle width="150" height="30" as="alternateBounds" />
          </mxGeometry>
        </mxCell>
        <mxCell id="YByUXClHuIxj8sc11FLs-16" value="FeedBack" style="html=1;whiteSpace=wrap;" parent="1" vertex="1">
          <mxGeometry x="-83.5" y="-830" width="110" height="50" as="geometry" />
        </mxCell>
        <mxCell id="qcG-YsEcirUFTlGkKuyn-30" style="edgeStyle=orthogonalEdgeStyle;rounded=0;orthogonalLoop=1;jettySize=auto;html=1;entryX=0.5;entryY=1;entryDx=0;entryDy=0;endArrow=none;endFill=0;" parent="1" source="YByUXClHuIxj8sc11FLs-17" target="YByUXClHuIxj8sc11FLs-16" edge="1">
          <mxGeometry relative="1" as="geometry" />
        </mxCell>
        <mxCell id="qcG-YsEcirUFTlGkKuyn-31" style="edgeStyle=orthogonalEdgeStyle;rounded=0;orthogonalLoop=1;jettySize=auto;html=1;entryX=0.5;entryY=0;entryDx=0;entryDy=0;endArrow=none;endFill=0;" parent="1" source="YByUXClHuIxj8sc11FLs-17" target="_Bfm6WtnI7c3qEJHPDgw-9" edge="1">
          <mxGeometry relative="1" as="geometry" />
        </mxCell>
        <mxCell id="YByUXClHuIxj8sc11FLs-17" value="Possui" style="rhombus;whiteSpace=wrap;html=1;" parent="1" vertex="1">
          <mxGeometry x="-69.5" y="-660" width="80" height="70" as="geometry" />
        </mxCell>
        <mxCell id="YByUXClHuIxj8sc11FLs-22" style="edgeStyle=orthogonalEdgeStyle;rounded=0;orthogonalLoop=1;jettySize=auto;html=1;entryX=0;entryY=0.5;entryDx=0;entryDy=0;endArrow=ERoneToMany;endFill=0;" parent="1" target="YByUXClHuIxj8sc11FLs-7" edge="1">
          <mxGeometry relative="1" as="geometry" />
        </mxCell>
        <mxCell id="YByUXClHuIxj8sc11FLs-23" value="Modelo Fisico" style="html=1;whiteSpace=wrap;fontSize=19;" parent="1" vertex="1">
          <mxGeometry x="-560.5" y="1169" width="241" height="100" as="geometry" />
        </mxCell>
        <mxCell id="qcG-YsEcirUFTlGkKuyn-71" style="edgeStyle=orthogonalEdgeStyle;rounded=0;orthogonalLoop=1;jettySize=auto;html=1;entryX=0.5;entryY=1;entryDx=0;entryDy=0;exitX=0.5;exitY=0;exitDx=0;exitDy=0;endArrow=none;endFill=0;" parent="1" source="qcG-YsEcirUFTlGkKuyn-14" target="qcG-YsEcirUFTlGkKuyn-20" edge="1">
          <mxGeometry relative="1" as="geometry">
            <mxPoint x="-355.5" y="-650" as="sourcePoint" />
          </mxGeometry>
        </mxCell>
        <mxCell id="qcG-YsEcirUFTlGkKuyn-14" value="Usuario" style="html=1;whiteSpace=wrap;" parent="1" vertex="1">
          <mxGeometry x="-395.5" y="-630" width="110" height="50" as="geometry" />
        </mxCell>
        <mxCell id="qcG-YsEcirUFTlGkKuyn-33" style="edgeStyle=orthogonalEdgeStyle;rounded=0;orthogonalLoop=1;jettySize=auto;html=1;entryX=0.5;entryY=0;entryDx=0;entryDy=0;endArrow=none;endFill=0;exitX=0;exitY=0.5;exitDx=0;exitDy=0;" parent="1" source="qcG-YsEcirUFTlGkKuyn-14" target="qcG-YsEcirUFTlGkKuyn-32" edge="1">
          <mxGeometry relative="1" as="geometry" />
        </mxCell>
        <mxCell id="qcG-YsEcirUFTlGkKuyn-15" value="TiposDeUsuario" style="html=1;whiteSpace=wrap;" parent="1" vertex="1">
          <mxGeometry x="-395.5" y="-930" width="110" height="50" as="geometry" />
        </mxCell>
        <mxCell id="qcG-YsEcirUFTlGkKuyn-72" style="edgeStyle=orthogonalEdgeStyle;rounded=0;orthogonalLoop=1;jettySize=auto;html=1;entryX=0.5;entryY=1;entryDx=0;entryDy=0;endArrow=none;endFill=0;" parent="1" source="qcG-YsEcirUFTlGkKuyn-20" target="qcG-YsEcirUFTlGkKuyn-15" edge="1">
          <mxGeometry relative="1" as="geometry" />
        </mxCell>
        <mxCell id="qcG-YsEcirUFTlGkKuyn-20" value="Possui" style="rhombus;whiteSpace=wrap;html=1;" parent="1" vertex="1">
          <mxGeometry x="-380.5" y="-800" width="80" height="70" as="geometry" />
        </mxCell>
        <mxCell id="qcG-YsEcirUFTlGkKuyn-34" style="edgeStyle=orthogonalEdgeStyle;rounded=0;orthogonalLoop=1;jettySize=auto;html=1;endArrow=none;endFill=0;entryX=0.5;entryY=0;entryDx=0;entryDy=0;" parent="1" source="qcG-YsEcirUFTlGkKuyn-32" target="_Bfm6WtnI7c3qEJHPDgw-6" edge="1">
          <mxGeometry relative="1" as="geometry">
            <mxPoint x="-670.5" y="-460" as="targetPoint" />
          </mxGeometry>
        </mxCell>
        <mxCell id="qcG-YsEcirUFTlGkKuyn-32" value="Possui" style="rhombus;whiteSpace=wrap;html=1;" parent="1" vertex="1">
          <mxGeometry x="-710.5" y="-570" width="80" height="70" as="geometry" />
        </mxCell>
        <mxCell id="qcG-YsEcirUFTlGkKuyn-38" style="edgeStyle=orthogonalEdgeStyle;rounded=0;orthogonalLoop=1;jettySize=auto;html=1;entryX=0.5;entryY=0;entryDx=0;entryDy=0;endArrow=none;endFill=0;" parent="1" source="qcG-YsEcirUFTlGkKuyn-36" target="_Bfm6WtnI7c3qEJHPDgw-10" edge="1">
          <mxGeometry relative="1" as="geometry" />
        </mxCell>
        <mxCell id="qcG-YsEcirUFTlGkKuyn-76" style="edgeStyle=orthogonalEdgeStyle;rounded=0;orthogonalLoop=1;jettySize=auto;html=1;entryX=0.5;entryY=1;entryDx=0;entryDy=0;exitX=0.5;exitY=0;exitDx=0;exitDy=0;endArrow=none;endFill=0;" parent="1" source="qcG-YsEcirUFTlGkKuyn-36" target="qcG-YsEcirUFTlGkKuyn-14" edge="1">
          <mxGeometry relative="1" as="geometry">
            <mxPoint x="-340.5" y="-510" as="sourcePoint" />
          </mxGeometry>
        </mxCell>
        <mxCell id="qcG-YsEcirUFTlGkKuyn-36" value="Possui" style="rhombus;whiteSpace=wrap;html=1;" parent="1" vertex="1">
          <mxGeometry x="-380.5" y="-550" width="80" height="90" as="geometry" />
        </mxCell>
        <mxCell id="qcG-YsEcirUFTlGkKuyn-41" style="edgeStyle=orthogonalEdgeStyle;rounded=0;orthogonalLoop=1;jettySize=auto;html=1;entryX=0;entryY=0.5;entryDx=0;entryDy=0;endArrow=none;endFill=0;" parent="1" source="qcG-YsEcirUFTlGkKuyn-39" target="_Bfm6WtnI7c3qEJHPDgw-9" edge="1">
          <mxGeometry relative="1" as="geometry" />
        </mxCell>
        <mxCell id="qcG-YsEcirUFTlGkKuyn-74" style="edgeStyle=orthogonalEdgeStyle;rounded=0;orthogonalLoop=1;jettySize=auto;html=1;entryX=1;entryY=0.5;entryDx=0;entryDy=0;endArrow=none;endFill=0;" parent="1" source="qcG-YsEcirUFTlGkKuyn-39" target="qcG-YsEcirUFTlGkKuyn-14" edge="1">
          <mxGeometry relative="1" as="geometry" />
        </mxCell>
        <mxCell id="qcG-YsEcirUFTlGkKuyn-39" value="Possui" style="rhombus;whiteSpace=wrap;html=1;" parent="1" vertex="1">
          <mxGeometry x="-225.5" y="-500" width="80" height="70" as="geometry" />
        </mxCell>
        <mxCell id="qcG-YsEcirUFTlGkKuyn-42" value="1" style="text;html=1;align=center;verticalAlign=middle;resizable=0;points=[];autosize=1;strokeColor=none;fillColor=none;" parent="1" vertex="1">
          <mxGeometry x="-370.5" y="-880" width="30" height="30" as="geometry" />
        </mxCell>
        <mxCell id="qcG-YsEcirUFTlGkKuyn-43" value="1" style="text;html=1;align=center;verticalAlign=middle;resizable=0;points=[];autosize=1;strokeColor=none;fillColor=none;" parent="1" vertex="1">
          <mxGeometry x="-370.5" y="-660" width="30" height="30" as="geometry" />
        </mxCell>
        <mxCell id="qcG-YsEcirUFTlGkKuyn-44" value="1" style="text;html=1;align=center;verticalAlign=middle;resizable=0;points=[];autosize=1;strokeColor=none;fillColor=none;" parent="1" vertex="1">
          <mxGeometry x="-425.5" y="-610" width="30" height="30" as="geometry" />
        </mxCell>
        <mxCell id="qcG-YsEcirUFTlGkKuyn-45" value="n" style="text;html=1;align=center;verticalAlign=middle;resizable=0;points=[];autosize=1;strokeColor=none;fillColor=none;" parent="1" vertex="1">
          <mxGeometry x="-670.5" y="-470" width="30" height="30" as="geometry" />
        </mxCell>
        <mxCell id="qcG-YsEcirUFTlGkKuyn-46" value="1" style="text;html=1;align=center;verticalAlign=middle;resizable=0;points=[];autosize=1;strokeColor=none;fillColor=none;" parent="1" vertex="1">
          <mxGeometry x="-250.5" y="-610" width="30" height="30" as="geometry" />
        </mxCell>
        <mxCell id="qcG-YsEcirUFTlGkKuyn-47" value="1" style="text;html=1;align=center;verticalAlign=middle;resizable=0;points=[];autosize=1;strokeColor=none;fillColor=none;" parent="1" vertex="1">
          <mxGeometry x="-113.5" y="-500" width="30" height="30" as="geometry" />
        </mxCell>
        <mxCell id="qcG-YsEcirUFTlGkKuyn-48" value="1" style="text;html=1;align=center;verticalAlign=middle;resizable=0;points=[];autosize=1;strokeColor=none;fillColor=none;fontColor=#ffffff;" parent="1" vertex="1">
          <mxGeometry x="-25.5" y="-520" width="30" height="30" as="geometry" />
        </mxCell>
        <mxCell id="qcG-YsEcirUFTlGkKuyn-49" value="n" style="text;html=1;align=center;verticalAlign=middle;resizable=0;points=[];autosize=1;strokeColor=none;fillColor=none;fontColor=#ffffff;" parent="1" vertex="1">
          <mxGeometry x="-25.5" y="-780" width="30" height="30" as="geometry" />
        </mxCell>
        <mxCell id="qcG-YsEcirUFTlGkKuyn-50" value="1" style="text;html=1;align=center;verticalAlign=middle;resizable=0;points=[];autosize=1;strokeColor=none;fillColor=none;" parent="1" vertex="1">
          <mxGeometry x="-340.5" y="-580" width="30" height="30" as="geometry" />
        </mxCell>
        <mxCell id="qcG-YsEcirUFTlGkKuyn-51" value="1" style="text;html=1;align=center;verticalAlign=middle;resizable=0;points=[];autosize=1;strokeColor=none;fillColor=none;" parent="1" vertex="1">
          <mxGeometry x="-340.5" y="-470" width="30" height="30" as="geometry" />
        </mxCell>
        <mxCell id="qcG-YsEcirUFTlGkKuyn-52" value="1" style="text;html=1;align=center;verticalAlign=middle;resizable=0;points=[];autosize=1;strokeColor=none;fillColor=none;fontColor=#000000;" parent="1" vertex="1">
          <mxGeometry x="-615.5" y="-230" width="30" height="30" as="geometry" />
        </mxCell>
        <mxCell id="qcG-YsEcirUFTlGkKuyn-53" value="n" style="text;html=1;align=center;verticalAlign=middle;resizable=0;points=[];autosize=1;strokeColor=none;fillColor=none;fontColor=#000000;" parent="1" vertex="1">
          <mxGeometry x="-455" y="-410" width="30" height="30" as="geometry" />
        </mxCell>
        <mxCell id="qcG-YsEcirUFTlGkKuyn-54" value="1" style="text;html=1;align=center;verticalAlign=middle;resizable=0;points=[];autosize=1;strokeColor=none;fillColor=none;fontColor=#000000;" parent="1" vertex="1">
          <mxGeometry x="-225.5" y="-410" width="30" height="30" as="geometry" />
        </mxCell>
        <mxCell id="qcG-YsEcirUFTlGkKuyn-55" value="n" style="text;html=1;align=center;verticalAlign=middle;resizable=0;points=[];autosize=1;strokeColor=none;fillColor=none;fontColor=#000000;" parent="1" vertex="1">
          <mxGeometry x="-225.5" y="-190" width="30" height="30" as="geometry" />
        </mxCell>
        <mxCell id="qcG-YsEcirUFTlGkKuyn-56" value="1" style="text;html=1;align=center;verticalAlign=middle;resizable=0;points=[];autosize=1;strokeColor=none;fillColor=none;fontColor=#ffffff;" parent="1" vertex="1">
          <mxGeometry x="-60.5" y="-440" width="30" height="30" as="geometry" />
        </mxCell>
        <mxCell id="qcG-YsEcirUFTlGkKuyn-57" value="n" style="text;html=1;align=center;verticalAlign=middle;resizable=0;points=[];autosize=1;strokeColor=none;fillColor=none;fontColor=#ffffff;" parent="1" vertex="1">
          <mxGeometry x="-171.5" y="-160" width="30" height="30" as="geometry" />
        </mxCell>
        <mxCell id="qcG-YsEcirUFTlGkKuyn-58" value="Usuario" style="shape=table;startSize=30;container=1;collapsible=1;childLayout=tableLayout;fixedRows=1;rowLines=0;fontStyle=1;align=center;resizeLast=1;html=1;" parent="1" vertex="1">
          <mxGeometry x="110" y="530" width="180" height="180" as="geometry" />
        </mxCell>
        <mxCell id="qcG-YsEcirUFTlGkKuyn-59" value="" style="shape=tableRow;horizontal=0;startSize=0;swimlaneHead=0;swimlaneBody=0;fillColor=none;collapsible=0;dropTarget=0;points=[[0,0.5],[1,0.5]];portConstraint=eastwest;top=0;left=0;right=0;bottom=1;" parent="qcG-YsEcirUFTlGkKuyn-58" vertex="1">
          <mxGeometry y="30" width="180" height="30" as="geometry" />
        </mxCell>
        <mxCell id="qcG-YsEcirUFTlGkKuyn-60" value="PK" style="shape=partialRectangle;connectable=0;fillColor=none;top=0;left=0;bottom=0;right=0;fontStyle=1;overflow=hidden;whiteSpace=wrap;html=1;" parent="qcG-YsEcirUFTlGkKuyn-59" vertex="1">
          <mxGeometry width="30" height="30" as="geometry">
            <mxRectangle width="30" height="30" as="alternateBounds" />
          </mxGeometry>
        </mxCell>
        <mxCell id="qcG-YsEcirUFTlGkKuyn-61" value="IdUsuario" style="shape=partialRectangle;connectable=0;fillColor=none;top=0;left=0;bottom=0;right=0;align=left;spacingLeft=6;fontStyle=5;overflow=hidden;whiteSpace=wrap;html=1;" parent="qcG-YsEcirUFTlGkKuyn-59" vertex="1">
          <mxGeometry x="30" width="150" height="30" as="geometry">
            <mxRectangle width="150" height="30" as="alternateBounds" />
          </mxGeometry>
        </mxCell>
        <mxCell id="qcG-YsEcirUFTlGkKuyn-62" style="shape=tableRow;horizontal=0;startSize=0;swimlaneHead=0;swimlaneBody=0;fillColor=none;collapsible=0;dropTarget=0;points=[[0,0.5],[1,0.5]];portConstraint=eastwest;top=0;left=0;right=0;bottom=1;" parent="qcG-YsEcirUFTlGkKuyn-58" vertex="1">
          <mxGeometry y="60" width="180" height="30" as="geometry" />
        </mxCell>
        <mxCell id="qcG-YsEcirUFTlGkKuyn-63" value="FK" style="shape=partialRectangle;connectable=0;fillColor=none;top=0;left=0;bottom=0;right=0;fontStyle=1;overflow=hidden;whiteSpace=wrap;html=1;" parent="qcG-YsEcirUFTlGkKuyn-62" vertex="1">
          <mxGeometry width="30" height="30" as="geometry">
            <mxRectangle width="30" height="30" as="alternateBounds" />
          </mxGeometry>
        </mxCell>
        <mxCell id="qcG-YsEcirUFTlGkKuyn-64" value="IdTipoUsuario" style="shape=partialRectangle;connectable=0;fillColor=none;top=0;left=0;bottom=0;right=0;align=left;spacingLeft=6;fontStyle=5;overflow=hidden;whiteSpace=wrap;html=1;" parent="qcG-YsEcirUFTlGkKuyn-62" vertex="1">
          <mxGeometry x="30" width="150" height="30" as="geometry">
            <mxRectangle width="150" height="30" as="alternateBounds" />
          </mxGeometry>
        </mxCell>
        <mxCell id="qcG-YsEcirUFTlGkKuyn-65" value="" style="shape=tableRow;horizontal=0;startSize=0;swimlaneHead=0;swimlaneBody=0;fillColor=none;collapsible=0;dropTarget=0;points=[[0,0.5],[1,0.5]];portConstraint=eastwest;top=0;left=0;right=0;bottom=0;" parent="qcG-YsEcirUFTlGkKuyn-58" vertex="1">
          <mxGeometry y="90" width="180" height="30" as="geometry" />
        </mxCell>
        <mxCell id="qcG-YsEcirUFTlGkKuyn-66" value="" style="shape=partialRectangle;connectable=0;fillColor=none;top=0;left=0;bottom=0;right=0;editable=1;overflow=hidden;whiteSpace=wrap;html=1;" parent="qcG-YsEcirUFTlGkKuyn-65" vertex="1">
          <mxGeometry width="30" height="30" as="geometry">
            <mxRectangle width="30" height="30" as="alternateBounds" />
          </mxGeometry>
        </mxCell>
        <mxCell id="qcG-YsEcirUFTlGkKuyn-67" value="NomeUsuario" style="shape=partialRectangle;connectable=0;fillColor=none;top=0;left=0;bottom=0;right=0;align=left;spacingLeft=6;overflow=hidden;whiteSpace=wrap;html=1;" parent="qcG-YsEcirUFTlGkKuyn-65" vertex="1">
          <mxGeometry x="30" width="150" height="30" as="geometry">
            <mxRectangle width="150" height="30" as="alternateBounds" />
          </mxGeometry>
        </mxCell>
        <mxCell id="qcG-YsEcirUFTlGkKuyn-84" style="shape=tableRow;horizontal=0;startSize=0;swimlaneHead=0;swimlaneBody=0;fillColor=none;collapsible=0;dropTarget=0;points=[[0,0.5],[1,0.5]];portConstraint=eastwest;top=0;left=0;right=0;bottom=0;" parent="qcG-YsEcirUFTlGkKuyn-58" vertex="1">
          <mxGeometry y="120" width="180" height="30" as="geometry" />
        </mxCell>
        <mxCell id="qcG-YsEcirUFTlGkKuyn-85" style="shape=partialRectangle;connectable=0;fillColor=none;top=0;left=0;bottom=0;right=0;editable=1;overflow=hidden;whiteSpace=wrap;html=1;" parent="qcG-YsEcirUFTlGkKuyn-84" vertex="1">
          <mxGeometry width="30" height="30" as="geometry">
            <mxRectangle width="30" height="30" as="alternateBounds" />
          </mxGeometry>
        </mxCell>
        <mxCell id="qcG-YsEcirUFTlGkKuyn-86" value="Email" style="shape=partialRectangle;connectable=0;fillColor=none;top=0;left=0;bottom=0;right=0;align=left;spacingLeft=6;overflow=hidden;whiteSpace=wrap;html=1;" parent="qcG-YsEcirUFTlGkKuyn-84" vertex="1">
          <mxGeometry x="30" width="150" height="30" as="geometry">
            <mxRectangle width="150" height="30" as="alternateBounds" />
          </mxGeometry>
        </mxCell>
        <mxCell id="qcG-YsEcirUFTlGkKuyn-68" value="" style="shape=tableRow;horizontal=0;startSize=0;swimlaneHead=0;swimlaneBody=0;fillColor=none;collapsible=0;dropTarget=0;points=[[0,0.5],[1,0.5]];portConstraint=eastwest;top=0;left=0;right=0;bottom=0;" parent="qcG-YsEcirUFTlGkKuyn-58" vertex="1">
          <mxGeometry y="150" width="180" height="30" as="geometry" />
        </mxCell>
        <mxCell id="qcG-YsEcirUFTlGkKuyn-69" value="" style="shape=partialRectangle;connectable=0;fillColor=none;top=0;left=0;bottom=0;right=0;editable=1;overflow=hidden;whiteSpace=wrap;html=1;" parent="qcG-YsEcirUFTlGkKuyn-68" vertex="1">
          <mxGeometry width="30" height="30" as="geometry">
            <mxRectangle width="30" height="30" as="alternateBounds" />
          </mxGeometry>
        </mxCell>
        <mxCell id="qcG-YsEcirUFTlGkKuyn-70" value="Senha" style="shape=partialRectangle;connectable=0;fillColor=none;top=0;left=0;bottom=0;right=0;align=left;spacingLeft=6;overflow=hidden;whiteSpace=wrap;html=1;" parent="qcG-YsEcirUFTlGkKuyn-68" vertex="1">
          <mxGeometry x="30" width="150" height="30" as="geometry">
            <mxRectangle width="150" height="30" as="alternateBounds" />
          </mxGeometry>
        </mxCell>
        <mxCell id="qcG-YsEcirUFTlGkKuyn-80" style="edgeStyle=orthogonalEdgeStyle;rounded=0;orthogonalLoop=1;jettySize=auto;html=1;entryX=1;entryY=0.5;entryDx=0;entryDy=0;exitX=0.5;exitY=0;exitDx=0;exitDy=0;endArrow=none;endFill=0;" parent="1" source="qcG-YsEcirUFTlGkKuyn-77" target="YByUXClHuIxj8sc11FLs-16" edge="1">
          <mxGeometry relative="1" as="geometry" />
        </mxCell>
        <mxCell id="qcG-YsEcirUFTlGkKuyn-77" value="Possui" style="rhombus;whiteSpace=wrap;html=1;" parent="1" vertex="1">
          <mxGeometry x="139.5" y="-480" width="70" height="70" as="geometry" />
        </mxCell>
        <mxCell id="qcG-YsEcirUFTlGkKuyn-82" value="1" style="text;html=1;align=center;verticalAlign=middle;resizable=0;points=[];autosize=1;fillColor=none;fontColor=#333333;strokeColor=none;" parent="1" vertex="1">
          <mxGeometry x="-225.5" y="-70" width="30" height="30" as="geometry" />
        </mxCell>
        <mxCell id="qcG-YsEcirUFTlGkKuyn-83" value="1" style="text;html=1;align=center;verticalAlign=middle;resizable=0;points=[];autosize=1;fillColor=none;fontColor=#333333;strokeColor=none;" parent="1" vertex="1">
          <mxGeometry x="25.5" y="-810" width="30" height="30" as="geometry" />
        </mxCell>
        <mxCell id="qcG-YsEcirUFTlGkKuyn-87" value="TiposDeUsuario" style="shape=table;startSize=30;container=1;collapsible=1;childLayout=tableLayout;fixedRows=1;rowLines=0;fontStyle=1;align=center;resizeLast=1;html=1;" parent="1" vertex="1">
          <mxGeometry x="-205" y="500" width="180" height="90" as="geometry" />
        </mxCell>
        <mxCell id="qcG-YsEcirUFTlGkKuyn-88" value="" style="shape=tableRow;horizontal=0;startSize=0;swimlaneHead=0;swimlaneBody=0;fillColor=none;collapsible=0;dropTarget=0;points=[[0,0.5],[1,0.5]];portConstraint=eastwest;top=0;left=0;right=0;bottom=1;" parent="qcG-YsEcirUFTlGkKuyn-87" vertex="1">
          <mxGeometry y="30" width="180" height="30" as="geometry" />
        </mxCell>
        <mxCell id="qcG-YsEcirUFTlGkKuyn-89" value="PK" style="shape=partialRectangle;connectable=0;fillColor=none;top=0;left=0;bottom=0;right=0;fontStyle=1;overflow=hidden;whiteSpace=wrap;html=1;" parent="qcG-YsEcirUFTlGkKuyn-88" vertex="1">
          <mxGeometry width="30" height="30" as="geometry">
            <mxRectangle width="30" height="30" as="alternateBounds" />
          </mxGeometry>
        </mxCell>
        <mxCell id="qcG-YsEcirUFTlGkKuyn-90" value="IdTipoUsuario" style="shape=partialRectangle;connectable=0;fillColor=none;top=0;left=0;bottom=0;right=0;align=left;spacingLeft=6;fontStyle=5;overflow=hidden;whiteSpace=wrap;html=1;" parent="qcG-YsEcirUFTlGkKuyn-88" vertex="1">
          <mxGeometry x="30" width="150" height="30" as="geometry">
            <mxRectangle width="150" height="30" as="alternateBounds" />
          </mxGeometry>
        </mxCell>
        <mxCell id="qcG-YsEcirUFTlGkKuyn-94" value="" style="shape=tableRow;horizontal=0;startSize=0;swimlaneHead=0;swimlaneBody=0;fillColor=none;collapsible=0;dropTarget=0;points=[[0,0.5],[1,0.5]];portConstraint=eastwest;top=0;left=0;right=0;bottom=0;" parent="qcG-YsEcirUFTlGkKuyn-87" vertex="1">
          <mxGeometry y="60" width="180" height="30" as="geometry" />
        </mxCell>
        <mxCell id="qcG-YsEcirUFTlGkKuyn-95" value="" style="shape=partialRectangle;connectable=0;fillColor=none;top=0;left=0;bottom=0;right=0;editable=1;overflow=hidden;whiteSpace=wrap;html=1;" parent="qcG-YsEcirUFTlGkKuyn-94" vertex="1">
          <mxGeometry width="30" height="30" as="geometry">
            <mxRectangle width="30" height="30" as="alternateBounds" />
          </mxGeometry>
        </mxCell>
        <mxCell id="qcG-YsEcirUFTlGkKuyn-96" value="TipoUsuario" style="shape=partialRectangle;connectable=0;fillColor=none;top=0;left=0;bottom=0;right=0;align=left;spacingLeft=6;overflow=hidden;whiteSpace=wrap;html=1;" parent="qcG-YsEcirUFTlGkKuyn-94" vertex="1">
          <mxGeometry x="30" width="150" height="30" as="geometry">
            <mxRectangle width="150" height="30" as="alternateBounds" />
          </mxGeometry>
        </mxCell>
        <mxCell id="qcG-YsEcirUFTlGkKuyn-121" style="edgeStyle=entityRelationEdgeStyle;rounded=0;orthogonalLoop=1;jettySize=auto;html=1;entryX=0;entryY=0.5;entryDx=0;entryDy=0;endArrow=ERoneToMany;endFill=0;" parent="1" source="qcG-YsEcirUFTlGkKuyn-59" target="qcG-YsEcirUFTlGkKuyn-116" edge="1">
          <mxGeometry relative="1" as="geometry" />
        </mxCell>
        <mxCell id="qcG-YsEcirUFTlGkKuyn-122" style="edgeStyle=entityRelationEdgeStyle;rounded=0;orthogonalLoop=1;jettySize=auto;html=1;exitX=1;exitY=0.5;exitDx=0;exitDy=0;endArrow=ERoneToMany;endFill=0;" parent="1" source="qcG-YsEcirUFTlGkKuyn-59" target="qcG-YsEcirUFTlGkKuyn-110" edge="1">
          <mxGeometry relative="1" as="geometry" />
        </mxCell>
        <mxCell id="qcG-YsEcirUFTlGkKuyn-123" style="edgeStyle=entityRelationEdgeStyle;rounded=0;orthogonalLoop=1;jettySize=auto;html=1;entryX=0;entryY=0.5;entryDx=0;entryDy=0;endArrow=ERoneToMany;endFill=0;" parent="1" source="qcG-YsEcirUFTlGkKuyn-59" target="qcG-YsEcirUFTlGkKuyn-107" edge="1">
          <mxGeometry relative="1" as="geometry" />
        </mxCell>
        <mxCell id="qcG-YsEcirUFTlGkKuyn-124" style="edgeStyle=entityRelationEdgeStyle;rounded=0;orthogonalLoop=1;jettySize=auto;html=1;entryX=0;entryY=0.5;entryDx=0;entryDy=0;endArrow=ERoneToMany;endFill=0;" parent="1" source="_Bfm6WtnI7c3qEJHPDgw-78" target="_Bfm6WtnI7c3qEJHPDgw-103" edge="1">
          <mxGeometry relative="1" as="geometry" />
        </mxCell>
        <mxCell id="qcG-YsEcirUFTlGkKuyn-127" style="edgeStyle=entityRelationEdgeStyle;rounded=0;orthogonalLoop=1;jettySize=auto;html=1;entryX=1;entryY=0.5;entryDx=0;entryDy=0;endArrow=ERoneToMany;endFill=0;" parent="1" source="_Bfm6WtnI7c3qEJHPDgw-116" target="_Bfm6WtnI7c3qEJHPDgw-144" edge="1">
          <mxGeometry relative="1" as="geometry">
            <mxPoint x="500" y="1090" as="targetPoint" />
          </mxGeometry>
        </mxCell>
        <mxCell id="qcG-YsEcirUFTlGkKuyn-128" style="edgeStyle=entityRelationEdgeStyle;rounded=0;orthogonalLoop=1;jettySize=auto;html=1;entryX=1;entryY=0.5;entryDx=0;entryDy=0;endArrow=ERoneToMany;endFill=0;" parent="1" source="_Bfm6WtnI7c3qEJHPDgw-116" target="YByUXClHuIxj8sc11FLs-7" edge="1">
          <mxGeometry relative="1" as="geometry" />
        </mxCell>
        <mxCell id="lY7QXQuWgSSP3nP7NDn2-4" style="edgeStyle=entityRelationEdgeStyle;rounded=0;orthogonalLoop=1;jettySize=auto;html=1;entryX=0;entryY=0.5;entryDx=0;entryDy=0;endArrow=ERoneToMany;endFill=0;" parent="1" source="_Bfm6WtnI7c3qEJHPDgw-132" target="lY7QXQuWgSSP3nP7NDn2-1" edge="1">
          <mxGeometry relative="1" as="geometry" />
        </mxCell>
        <mxCell id="lY7QXQuWgSSP3nP7NDn2-5" value="" style="edgeStyle=entityRelationEdgeStyle;fontSize=12;html=1;endArrow=ERmandOne;startArrow=ERmandOne;rounded=0;exitX=1;exitY=0.5;exitDx=0;exitDy=0;entryX=0;entryY=0.5;entryDx=0;entryDy=0;" parent="1" source="qcG-YsEcirUFTlGkKuyn-88" target="qcG-YsEcirUFTlGkKuyn-62" edge="1">
          <mxGeometry width="100" height="100" relative="1" as="geometry">
            <mxPoint x="200" y="635" as="sourcePoint" />
            <mxPoint x="300" y="535" as="targetPoint" />
          </mxGeometry>
        </mxCell>
        <mxCell id="YBAiLN3bYHbKLpRekMjc-1" style="edgeStyle=orthogonalEdgeStyle;rounded=0;orthogonalLoop=1;jettySize=auto;html=1;exitX=0;exitY=0.5;exitDx=0;exitDy=0;entryX=0;entryY=0.5;entryDx=0;entryDy=0;endArrow=ERoneToMany;endFill=0;" parent="1" source="_Bfm6WtnI7c3qEJHPDgw-100" target="_Bfm6WtnI7c3qEJHPDgw-132" edge="1">
          <mxGeometry relative="1" as="geometry" />
        </mxCell>
        <mxCell id="L4CnUB_kCd9V9FDW6dj1-1" value="" style="shape=image;verticalLabelPosition=bottom;labelBackgroundColor=default;verticalAlign=top;aspect=fixed;imageAspect=0;image=data:image/png,iVBORw0KGgoAAAANSUhEUgAAAgoAAAArCAYAAAAZrqDvAAAAAXNSR0IArs4c6QAAAARnQU1BAACxjwv8YQUAAAAJcEhZcwAADsMAAA7DAcdvqGQAAAdTSURBVHhe7dyxkeQ2EAXQGWUiR86EsL6cNS+HSeAchaAUxrsEZG4ICmGcS2ZVvTW/1NXXjQZIkATJ/6pQQwKNJkhguLjV6a6/f//z80JU4d/vP15H1Orj4+Py/v7+OiPaH67hc5J5vz4ej8+/f/7zqiKK/fXHt9cRERGdxddG4X6/v06JfM/n83K73V5n1IrPj/aOa/icZN5/ex0TERER/YIbBSIiIgpxo0BEREShcKNwvV5fR2WluNoc2pQ+Wmv/peNbLZ2/t9rxRnFSr4ul67z2ktb4LURjHHnsU8Y29372MJdnJvNjy1KWzE2+w/1G4fOz7f/2bI2nPvAykeevS+kl0zpXrfFb4Ysvt5e5PCPveyyF6/o4FtsoYPFwsVBE1ofl1dE4+L0mDevBw3VyHM0bBZl4lB5K+VDntWd9BI4Rm8ULHavb9Lk9xieOBc518WTtohSDuqh9KxiPNyapK20IoheMrsOxfKJYUV0p3pY1tLxQS2NDndce9QG0l2JalPKhzmvP+ggcI9aLpzF43/PSvKGuFANZjG4vxVGuaaMgD1omHiV68IgTNXGlfDoG7V5dRMdm8TZWx+PcHgvdz57rYq9t42y7aI0ZQc2YMzX30nqdUrxt82K2Vho/6Bi0e3Wabo9iBOJETVwpn45Bu1cX0bE18bSM1mdfM289Ymx7FEd1qjcKePCaPW9Rm0/XybHth7qIzZnFW7a/x7tGpub+oxg7/prrraXmvnqpeTaQPculxlirNHaRjR90DNq9OqjNWyvKZ+k6XM+ri9icWTwtB8/eFkvqauatR4xtp3m6/x2F2sVANAK+UOrwe00lshZs4do4jsX+MuMeYXHrMpXNMycXrWPrOdvq5WrveYsx0PF469muM9ve05rXOrquGwVMhJ0cXT867IZRpoxZ+tg8Uqje2mvlzHPm3bcUwFzIpy2oJ6rhrTMpvcmaXOM6Z9H9Nwre5KAQCVkLpR8u+JKvYbQfctmzWYsdA77DXqHz6rFWR/sO0q+qNwryQrATqs/lOHtp6BxZvi2sef2a+49isue8pZZ59eqj2Ln2+Cy1pcaf5a25hs4R5aNj8uYb7NqJ1oaOoTE1/UYBE40yd4J755vLjscbE2JKvDxSbF8bZ68lamJGU3tfNg6xXnwP9nr6Ot5YECOfa4ruvzT+OXrnXWqcNCY736V5X2ttlMYkn9Qm3ChEEyj1KDjXnxkbh1xeHhsrsrqsvyjFyLkuHl1firEF9VrWLmyM5tWtKbq+HXNNnBej66JjLYuROhRLt+kYfC4hyl2qR7Hm1qFoXqzH66fz6XYbK7K6rL+I6ml58uxtiZRion66viZGyLktqKc23f+OAhERER0HNwpEREQU4kaBiIiIQtfH4/H59vb2OiUiIiL639dG4X6/v06JfM/n83K73V5n1IrPj/aOa/icZN75nx6IiIgoxI0CERERhbhRICIiohA3CvSF/1rZPFOfX9av17zoPL3nupSv97VayLWz0lNrPh3feyxrysY+9d6kny5z6Rw98vWQjcNrl7q1x8+NwsltseiOZC/P74z/Gp3+F/m80tsSOc8I3yk7Xz2/a3uZKztO/VzWxI3CyW2x6I6kx/OLXn69XopLwotrD2PVMG7qo/ca9uaG87UdbhSIdqTmhYxj+dTHJYjN4qaK8tr6bBy6PYrJSD/7Q8fmlaLhPGoXUV0Un5nTd1TRvaBePksbAmnTOXQ/XS9QZ+uFrsNxKV7odi8O51E7RPUem9MeA+psfS/cKBBtzL78hJzP+RMU+tfk0LFSal82eowt/SLZOGy7F5NBDs3LKyW7fnbt1nhtTt8teGPEPSxNPytofX5ZvG2vietJ57T5s7H3wI0C0QHpF0kJXjLaEi8bL6e+9tRx2D4l3jVEbY6W8U29HzGn7+i8+/Dut4XtGz2/Ei9ejzPrDzrO5hBz79WK7tVedy5uFIgGoL/cvV8mS1jrBdXLHp7p3u1tDVM9bhSIaBXZDxKps0VD/6g9InHZDy2bV8pcS+Q8gmwdjErPI0pmjXvV40HpjRsFokHgpTL6ixMvIv1iQkH9FHLfXtFsW3Ytabc5LMTYMpeXU8qRyf3VPPO9WWqN9OCNS0pP3CgQUTPvxYRSIu0tP0gkdqoRf2DNuZ8jidYB6iMjzmkmutcl9V5n3CgQDSR7mXgv0jkvhShfNI5SG3g5MzXjaMlZM85W2fi0mvuJzOk7gh7jtPcvvDpP9PyOaK21wo0C0c7g5YAy96XQO99U2Thsuxej2VhbwMsrBfVg40rXFq3x2py+e1C6J6m394/42udg+9f2i3jjQV75LEFcROfTpVbve/Vwo0BfllhcZzL1+WX9onapR8E5eH1q2lFKsnZAnBdfyiFtKB7dHsUIG+cVLWrHJ9h2LaqriW/tO5JsfFPHr+8/ylHKbfvq2OhYs/Vybgvq9WcLncsWtGv2HGy/3rhRICKi1Sz1p94RHeVeuVEgIiKiEDcKRES0Cv42YY8ul/8AbuNo3sx+Kz0AAAAASUVORK5CYII=;" vertex="1" parent="1">
          <mxGeometry x="-822.5" y="1310" width="522" height="43" as="geometry" />
        </mxCell>
        <mxCell id="L4CnUB_kCd9V9FDW6dj1-2" value="" style="shape=image;verticalLabelPosition=bottom;labelBackgroundColor=default;verticalAlign=top;aspect=fixed;imageAspect=0;image=data:image/png,iVBORw0KGgoAAAANSUhEUgAABDoAAAAuCAYAAADJJXknAAAAAXNSR0IArs4c6QAAAARnQU1BAACxjwv8YQUAAAAJcEhZcwAADsMAAA7DAcdvqGQAAA7JSURBVHhe7dzBcSS5EQVQUsbowvVAJsxRDsgHXXTTVRcZsLc1QDqOCfJgeJEB68ZoM8QfkfsnE0iggeqq4n8RGd0FJBJAVXWTW7HD119//fX7iwz7+vXry5cvXz6ORMbpHpIq3Svnp2skd/Wnf/7l452IiMg1/Oevv7y8/vzzz3rQISIiIiI/+Md///3xTkRE5Br+9sc/v7x+/83HsQx4f39/eXt7+zgSGad7SKp0r5yfrpHcle5tERG5Evzc+sPHsYiIiIiIiIjI5elBh4iIiIiIiIjchh50iIiIiIiIiMht/PCg4/X19eNdW5Zn7T6Yb4v6W0bznwn7R0RG2n0tHy29fjmn7Lqd7XriHsxitavUPJI/3z6u4qi1j9ZduY5WrV37rZqZ38a04khHz3cWZ9m3v+5RrLCqjoiIfD7L/o8O/GCzv23qo/UDb/TvoI7mP8PoecjOTYRroq7cz1Wua3RPIq7gKuts4fNucYX7x9Z41Nqtrvxo9rz468VxpKPnkx/x9fchIiLyTEv/6Ur0g+0z/rA78jxYXT3sEBHv7N8LeMgR0XeaiIiIiDyq/KDDfvFEsNYvrSb7xdW34b29IljW1srn2Mnqj54H/VIvkZH7wvIQDG1RfzYG0N/KqfB1ono4bvVzDuDYB2v1R8ccd9LbX9Rv4fX6odffEn2PVuplOdExx5m01oU27sexDw/Hvo9zDPqjvqpsrG/He8yVjTFZTjQmyzVoa+UY3x/l4Tjr4zYP/VEO2rIc39bq5/Znw3oq63s0B21RP9q43evl9PpFROQ8Sg867AvdfvFEzHzBR7+4stF5WvncF+U8g61BZJXWZwB8DvqjNs/3ZzkVXCer15oPbfy+UjvK8f1epd6VVfYX9XvVc8R53B+1tfTqmUqO4bxe/tEq+/A5fOyDx/I4xnV4/GqV+UbWtKIe91fy0Be1eb5/Jgdt/N5Uaj9TZX07cmBF7UoNERE5j+6DDnyxe3y8SjRP9oMkWxfyd61xh9Y+e6LzIPfQuy96nwHwOeiP2qBa11hbFMB1MtX5vGptlo2brXdGdu6iczqK61RqZHPz9UQbB7O2Xr1KDnDeEWwdUTBrq+wjyqlo5VXnNtYWxajefPZ+ZE2V3F4O92d8HmpEbbBqfZFq7R1sjihYb332Psrxshyeb2ZcL6dSQ0REzmXp3+g4A/5BdCf2A5XjzvuV87P7Lwo5zq7vhVV1Wvw9g7B5V7F6Z8B7RFxVtBeLoxw5l7TxPYC4izvtRUTks7ndgw7P/+KPOCv7Ydpbn/8lAiH3Ztf4Gfet/8wgZq2sxXq1cf6yfsa5vfwz8N8HiGzdvLdWntWJ8HiLlVrrX4XXv3u+I9xxT8+y61zuqvuZzJ7D2XEiInJdhz3oOPqHis3nf/FHPNuu86Af2rJS9NmxGLXzc1itzf3ZZ2XnWo9m6+Z9rtjfHc7Rna4z3HFPz7LzXEZ1LaQuOn8WPdEYCxERua8lDzrsh4X9cpDBLw5HaK1jt0fPQ2+8fE5nuS90b34Ove+pFY66l3TP3tOdrqvu0cfNnsPKOF0fEZHr6j7oiP4jK/vij9p3/ZDI1rX7F/SKI8+DfF67PgNn/myN0uduzFH3T5QDldyZnCt45j5Wzp3VGjWyppXr32Hn+s6+94psD97sPivjejmVGiIici6l/6MDX/CI6Ivd2jgPuVH+CjyfnydaC3LsdRerH82N9p5KTiSbU+4hu5Z83Vdd81V1uY6vZ68jeEyldpRjbZFKvSvhdVf3x/2+r1qD8+yYtWqxmXpRjuE8n2+vz1bdh7dqTzNzZ1bVGqmzYk6u4WvZ6yNWrM9Ea1lVe5Sfk2NUZQ+z+1xRu1JDRETO44cHHdkXt7UjcBzxeVGOb8vee70ca0Mw3+dz8LpTNC8bac9yPcyFkGvKrl2rPbvmj7YhIlk783UQaPevLGrnNjvmQDtE/RAdc6D9jHrr4n7syQfa8RqFl/XjFbg/4nNGcjNZTnTMgXb/ukKrVtZn7QhWGYNAu3/1sjZEJGuPcC0/NqsTtaMG943kmqjNcLuvgUC7f/VG2hAsajPVXNTN6qzm54sC/HsvaufxlRwvaoPWOOjl9PpFROQ8DvtjpCIiIiIiIiIiu+lBh4iIiIiIiIjchh50iIiIiIiIiMhtvH779k3/0FBEREREREREbuH1u/6i0pT39/eXn/7108fRj77/XadV2uweent7+zgSyeleOT9dI7kr3dsiInIl+Lmlf7qygR5yiIiIiIiIiDyHHnQspoccIiIiIiIiIs+jBx0L6SGHiIiIiFzJ6+vrxzuR9a50f9laeb36fFyXHnQkRm9qe8iBD0cUrNUHR+Z4nOfHc7BWH7RyfB8Ha/XBqhyvmjert9YduG7veJSN98F8W9TfMpp/J6297zovXLd3PMrG+2C+LepvGc1fqTe39SOqKmMqOawyppLDKmPumnNHft8+jhatweIou+bi/XCMaOVbX+vP9c3Mt1tvPVhzlOf7OCpG83x+deyoVXWtDsejrMbIn4NcMWfE7wnBrM3WahH1P8LP62OHXXUjvJ8j567Qgw4yc5H8/8mBDwiHZ/V9XzTfkTle1O/H+2Cr1uP7fXir5qrkeL1++T07X3yOcZ6zc2n9I0bz5Zzueq+01g+8716+qYy5Y90r5tyZ3/szz8Ez12Fz7cJ78rEC7t+Mv7/PwNbTu65+zRac7/t87LKz9kp83hC9892Cms82szf0r9yDnxvRWsPZzZzXo+lBB8FFqhr95yrRB4ZviiNzVjlyPavmquTI4/gcm6hN5I73iq1f97t8Jna/n+Hn6FnWcWZX+27qfZ8e8XtdpV60jjNrrfeR83eGczCyN86z49174DVcxa57ZjU96HjAyr/JsfuDVNG6adlI7tVk+zrznm1tiIjvr+Txe0Abt0csp3W+rC+q49vw3l4RLGvL8j+73rnx/ZU8fg9o4/aI5XzWe8Xm5b1H+/XHlTHPruutqnvFHPm/7Jxwux1zrNSqi7aoH23cbnwb3nMujn2slNX2x9xn0Ja183uDYx8ejrN+r5JzBJufP8urVPePqOjl+/5WXhWfm159PoaoPavhVXJmje4Nev2zfN2oPh9D1g5ZvV38ecWcR6/B6EHHBpUL2cqJflGy49Ev4ZH8mfreqjWDjUWwSs0oJ1tPay7Ixp4B1obgfXB/lmfQx+9Nb54Zvn5mdN4d67yL3rnh/izPoI/fm948M3z9zOi8O9a5i61vh111RUbx5xGx6nNZ+bz7HKiM87gGj0f06lRF9VEbx/ze8Di/Hp/r30dzWfixplUbKjmjojqYZ6XWeqvzIY8jqws8jvNn6vb6vZn6Ga4V1ajktIyM4bkQPP7RNWWq84/asd7ROjvWUKEHHYtVLmQlB+0IO15hRa2sxqo1YyzCjnuy+bCWVv/oXEfw6/bBrI33xfvg/lm9eXYZmbdyPu7G9hYFs7beueH+Wc+6BiPzVs6HiIyLPlsVM2Na/Dqqn3fOqY7zovxZNk8UPb05rcbovkx1L73as/NXoA6C52GVnB1m5ozW2juusnH+vCHYbH1mtXtrz3KidbVgDAfjuSI2bsWawNerzD9q9Xo91OGI7FpDjx50LFa5kJUcO7Z2RFQjGtOCmixrH4U6CF5P1MbHhtcSjfMwb8TaEbNztervgjVzyJw7nzu+RxAyR+dOpM5+PnI84zN0lnWshu9zDsnh2iPseIeo9tXvO3/eELvO39HOsDebj8PWcSbRGlv4nFr0xhxJDzoWsou7gt0gXCu6cdCGaM2f9ffGVUV1sD4PbYhozIioRiZaT89I/WfBufTBKjlyf5X7oJIjImLs5yPHI98Z/N1TrRWtg83Wnh3nraiRsb3O1OYxu8cdwdbC1x7n54z8OUSssLJudP64NvevtHOuo/dm83GwnfNXVNbYY2OOXndGDzoWesZFrdyItq5evw+0Ray9VauiteZs3khrLSN1eqyWD7SdhT+fPsDW2up/pjOdx88gug8sQPeKiDzKvjNmPq+7v3+i2hY90RiLqiO+V7l25fzzGETLEXs5EvYzy8biXI/W2nUud1+j3fVZNJfFDkfvjT17/jvSg46Lsg9DBT40Gf4wIRevK1XXXNHb1yr+vCDQfmYrz/UsO0etdRx1Dc0ZzsdZ6V75vaPPR7T33n4rY+5Y94o5cm58/apmx53dXfclbVe77iPr1T29x1XOqx50LLTqF6NVOXy806o1V3L4OLJqrrO7wh54fSZqW+EO13QX3Su/p3tF5DjZ5+0os5/3K3xPzJzHZ+9r1/zP2Bfm3DkHZPt7VFQXZvZWWecjOSPriWrAaC2zYk2PyObP7FpvVBei+jvWUKEHHYvhwiOii3hkju/3scOqNVdyfL8Pb9VcZ9fbA/f7PHuNtPpGWJ1ofrTvwPPtmueKeueG+32evUZafSOsTjQ/2nfg+XbN01NZh7V7lTF3rHvFnM8I58XrnSvu93n2+qje/JnZccDjfR17beExPiCqz2uM5uJxPCYSzYWx9jpiZv6KVXVt7E68TgTaM739raqLmK3PeVzHrMqx9haugeBarTx7Bc7jOrN2zT+aX8V1W/V3raFHDzoSj1wAG4vIHJHj+zhaWv2Vsb05Hs3xfRys1QeVHK+aN6u31gjWX+n3efzq+bao32TtzPJ8MN+Wvfd6OdaGuLPW/rK+3rnx/T6PXz3fFvWbrJ1Zng/m27L3Xi/H2hA79er31hG198aYXk7U3htjejlRe2+MuWvOHfX2G/XzueIc349Ae6bVx7iu15ujMi6r4ccj0J7hfA6v1QdR+6NjEGj3ryxqx/hsTKaXX62b9Y/+h1gr1/dxnh1zoL2ll+/7EWhv4TFZfpaHV+j1m5kcr3qtfA1EJMvDK3B/z0geB9q9Vj/nGs5fxdft1a/krKYHHSIiIiIiIr858j/E5DG6VtKiBx0iIiIiIiIicht60CEiIiIiIiIit/H67ds3/T8/IiIiIiIiInILr9/1j5umvL+/v7y9vX0ciYzTPSRVulfOT9dI7kr3toiIXAl+bumfroiIiIiIiIjITby8/A/vBMdztwJWkQAAAABJRU5ErkJggg==;" vertex="1" parent="1">
          <mxGeometry x="-822.5" y="1390" width="1082" height="46" as="geometry" />
        </mxCell>
        <mxCell id="L4CnUB_kCd9V9FDW6dj1-3" value="" style="shape=image;verticalLabelPosition=bottom;labelBackgroundColor=default;verticalAlign=top;aspect=fixed;imageAspect=0;image=data:image/png,iVBORw0KGgoAAAANSUhEUgAAAjEAAAA8CAYAAACXbusDAAAAAXNSR0IArs4c6QAAAARnQU1BAACxjwv8YQUAAAAJcEhZcwAADsMAAA7DAcdvqGQAAAmJSURBVHhe7dzLcSQ3EoBhUp5IV5owd8mOvdAByQyF7rRDJxnSV7nCjZxlxqZSeCRQQBVQ/X8RiOlCJRKv7mrEkMHXH3/9+fPv3/96wdp++u2X7/+yV9d4PB4vb29vX1eYgTW+P/YYI8n76Yev1wAAAFvhEAMAALaUPcS8vr5+vSrLxUm9LSvz41t9vFZ0rKk5pspoM3KKWXlbRcfh42rtRs7P5hqZ9ywy5lQ5YkT7UWOZzY9vxfGWxnTVeKVfW1bmx7f6eEca/j8xuuGfn5//KFqPdfg90n0aSXJiHbvuh32ParnimaJ9rjAWzMEe72XKj5Nkw71UHdajH1bMl1tn1j/mqmcKz7f7Y4/30XyI0dNo6kErdaWNlnu+XS2f/puLEfa+jym18Wx7+1rotS0rGzVOm6eUL3c/FZ+LFVqXi7F1pfu+/myzxhHJW4rJ1eXiRe3+lWrPFC3KXufu2WLJNc+3dZTGqnX+vl7bYsk1e7yXpkOMTFo2UUvPItg3SCRfLcbfT8VEaXv/OtWHlN5+ZvPj7R1ndN4t/UViSzFa51+LSO4zRMeRuqdtUyJ5IzFWLb4139X8eP249dq/rrWLkjbK50zlqsX4+6mYKG3vX6f6kNLbzxn8mFNjtTH+2pbWeUob1TqOVIy/n4qJ0vb+daoPKb39rCR8iNFFsPx1i1w+v6iRGO/IuFJG55vp6D7Z9pF20X0U0dhoPqtlHDPlxnFUZH6tfddyRvpcTWm+Jb3tcqJrF4nxRo91dL5eMu9U8aQusm6pmJGOjCM1L2v0WEfnW8mU34nBHuSD5MuoN/udPzQj2QfayPU/gr3DFeR9lypAyfaHGHmT2y9h/UIYzfcxq58z+YeFFG/0vEfns2bmXsHd5zdK7zr1tptJPpNnjMn3Maufq604T/b4mNMPMTMWzn4J6xtiJMnn+5BydzPmnconZYRUXimrkzHqWpfYOdmC/+t9z456r0ue0fyYRvcxau6rY4//2YeUOxh6iJFFKS2+LiTur+VDOPoDa83MvYIZ89tpzWSsZz1TeL7dH3u8n/AhJrW5uc1O1fu6XL7WN0huDKpl3Hdw9nxb9rElttXM3C1y46ipjTMyv9a+azkjfV6pNLeZUv36ulFrV5tjrp87O+N9mVpDX8cer6Hpf2J0MbWkNkvqfJzG+ngf5+9H5PqyWvvReJXqQ4qPW0XrfHOi827pryW2xI9BjMp91KxxRPK29l2Lb803ix2DHUttvDZW/lW5a19ScalYrbd8nL8fkevLau1H41WqDyk+biWtcxbRecp1KlbrLR/n70fk+rJa+9F4lepDio/bUfYQk1skqdei1yk2LhcjSjG5dr7e5ii1sfdtXKqNr9O2tmj9lXL918aZa+fZPFq03vL3lb8WuViRqhPRWM2byzNarh8/Dh+Xa6dy9zVnqb2PsbGpdj7eq92fzfZvS04uVv9VqWtftN5LxaWUYnLtfL3NUWpj79u4VBtfp21t0fozlPrJ3dNxpu5H2mjRei8Vl1KKybXz9TZHqY29b+NSbXydtrVF63d2+i/2os/fv//1vQAAgP/hELO4n3775V8FAABwiAEAAJt6/fHXn/f+gdiNyY+PUv/z8ud//vh6BQDA8+IQs7DcIYbfjTnf4/F4eXt7+7rCDKzx/bHHGEneT68fHx+f7+/vX1VYDYeYNfDwnY81vj/2GCPJ+4nfiVmcHFikyI+Q9DUAAOAXewEAwKY4xCxi97+auDvWfy79C6G96xxpf2ZMSqRdJCYn18bm9GU3tTG3zM3G+uKV7uVE2kRivEibu8b04BBzsRmbijjWfz5ZX/tXQlvXO9L+zJiU2blrsTavLbuIzFHu27nV4oWNt8XqyRtpc2XeHWN6cYi5mG4qrsH6z6UPL0uuow+xo+1VJM+ovlKO5JY43/ZuanOcuTfYG4cYAFu7+guOL9jr+HVvXfPo3tnrSJtoXmtU3h1jjuAQA2Aa//ASqYdaTjSuJpLn6FhLJId/aI/KrSSflruqzTG3h6U2ESP3CWNxiAEwnf0iOfqFMCKHyOUZOVZLcs3Krfm0yPXd9MzxGdbl2XGIATDdqC8S/VI6qpQnN1Z57UsLiZ+VW/JZPv8d9MzxGdbl2XGIAXCq3i8SaeO/lHq05LFjlde+RKX6lOsRuVtinwnr8hw4xACYRr+kj2o5eJSU8owa69l2HfdsrMtz4BADYGm1A4zc819YqTa1PL2i/WM9PXsXaXNl3h1jjuAQA2Caow+wUQ+7SJ6jYy3ZNfcqeub4DOsCDjEAJtMvEy2tXyK2rS1WpA973xard6yRdr25I2bmXkVkjlJvRdrcMe+OMb04xCxi5KaiHes/l6yvlha2nS9e9J4vXuleSaRdJCan1uZI7lUcnWOqvtZG1GJS9bU2ohaTqq+1EXeN6cEhBgAAbIlDDAAA2BKHGAAAsKXXj4+Pz2/fvn1dAgAA7OH7Ieb9/f3rEqt6PB4vb29vX1c4G+s/H2t8f+wxRpL3Ez9OAgAAW+IQAwAAtsQhBgAAbIlDzALsXzLE+Vj/cxxZ38genRmTEmkXicnJtbE5fdlNbsx+XrZE1OJa84lIm0iMF2lz15geHGIuJhtq/5Lh6A1GGes/n6zpkXWN7NGZMSmzc9dibV5bdlGbY2puUmoiayf3bc5avIi0uTLvjjG9OMRcSDfWGr3ByGP9zyFr6tc5atQeRfKM6ivlSG6J823vZtYcn2Htnh2HGABbm3n4iLi6/2eVWvfWNY/unb2OtInmtUbl3THmCA4xF/Ibi3Ox/usbtUeRPKmY1AO4h+TwD+1RuZXk0/KsRq6nNSsvjuMQs5jRDza0Yf3XN2qPcnmkXsvI94LkmpVb82mR6zsbvX7YF4eYhfDBvBbrv75Re1TKI/VaJE7Ja19aSPys3JLP8vmBu+IQswh54PgHEc7D+q9v1B615LGHAXntS1SqT7kekbslFrgbDjELGPVwRh/Wf32j9qiURw8Uu9l13L34vMLiEHMxPpDXYv3XV9sjuee/yFNtZu11tH+sp2fvIm2uzLtjzBEcYi40ciPRjvVf36g9iuSR+xJnjep/19zA6jjEXEweNqmCc6TWXgrWkdofKZZ+kWtJfYHb+7ZYkTwpkXa9uSNm5t6JzL1VZO183kibK/PuGNOLQ8yFZCNzBfOl1l0LxutZV78vtnjRe754pXslkXaRmJxamyO5VxEZeykmd6+WV+5rSUnV19qIWkyqvtZG3DWmB4cYAACwJQ4xAABgQy8v/wXUXonsiBqzaQAAAABJRU5ErkJggg==;" vertex="1" parent="1">
          <mxGeometry x="-822.5" y="1500" width="561" height="60" as="geometry" />
        </mxCell>
        <mxCell id="L4CnUB_kCd9V9FDW6dj1-4" value="" style="shape=image;verticalLabelPosition=bottom;labelBackgroundColor=default;verticalAlign=top;aspect=fixed;imageAspect=0;image=data:image/png,iVBORw0KGgoAAAANSUhEUgAAAvgAAABECAYAAAD0tUHEAAAAAXNSR0IArs4c6QAAAARnQU1BAACxjwv8YQUAAAAJcEhZcwAADsMAAA7DAcdvqGQAAA2jSURBVHhe7d09biU3EsDxpz2Kg0l0A+sAHmCCDfYC3kQXWMPYQ9h7ASe7yhUJBuwDeODYgJIJHOoYMzslvALKNcWvbrJfN9//BxDdTRaLbPb7oATZc/Py8vLp5Lx///705s2b8xVm8eHDh9PXX399vsJSv/zyy+nt27fnK/TG+q7D+gEAvtjg3/347fkMs/rtX/89n2GJn3/++fTu3bvzFXpjfddh/QAAN4+Pj58+e72Q4/e///R6jnn9+80/zmcAAACYzc0ff/zxl9/g//1/370e//zh19cj5vHVd9+8Hnm26zw/P59ub2/PV+iN9V2H9QMA/O18BAAAADABNvgAAADARNjgAwAAABNp2uDf3Nycz/J8nFznyhb8OH4OWkYYlbeX2vn5OF0zX3obkVP0zlubLxUn9bbsmZ/fFvO1axOVGjauts8s7FrZsid7mw8AHNVmv8GX/0NPqlxKNBe+YNpssYaSc2a60YrWkdfjX/k1sqVGbdys/JpJ2dPrTOYDAFiPP9Fx9AsPy7GG7aKNDZsdbIHXGQDMp8sGX38D1GNTV5OrV0wtmyuXs9Ru1cRcWsv95Ng8uXyp9ig+FSu0LhVj63Ltvn6pXD6py22woh+WSvn0mIoRtt3H5Pp4tr89F3pty2ipMbQ+ate5pfqKmpgji15nonTftr0mxtJr2+ZjhLaX2lIxotQOALNZvcGXD0z5ctCy5gO0JlevmBTtq3wuLT5ny5h+jD1quZ8cnyeVr2W8mthcjNb5c1GTu0WPfNJP1eQrxfj2KKaW9vfn0RhSlo5TKxpD5xLx84zmVxMzo9J9+/aamFx7JNfft0UxIpcDAGa1aoOvH5yWv1YSGxUl51GuXjERifWltq+V6if1XhS7N0vXQdn+Nf3Wrl8UW5vPaplHjVS+pWrnVxPjrZlXpHc+JfcRlaVKayXnpZgZLb1v26cmh2+3Sv1zfVXNHABgRhf/j2wvKZpPzw9+yWdFXzZHJ/fkS697nG2tsJ68JqJiybW8DkXP1yP6WPs8eJ4AULar/8jWbhK1eDUxa9jNgfLj+fYaS/ocgayXL55fu7Vr0TufNTL3Xsgz2uIe/RijxonoPUavx1b+HqRcg9J9b/U6yvHjX2IOALBHu9rgyxdGVKyoXcoo8oXRYzztd21fQL3Wz4rySekhyivlkka8Zvz99R5jxHNvoeP3uC9/D1pmF92zFMu3jXitplz6NQYAe7arDX6k5gtjyy+VFtG85Ator/Pdm5Z1GrmmI3OXXg/SxqaljV2zUe+3ka+JS6h9nfW477U5Zlt7ABhh1QY/+vJc+uGbymW/dNbE1PL5atTMy4ri92TtGrZqWb+W2Fa9c6fyRaJ6X9drfqk5qJZ5H11pPXut+Z5Fz7bmvqN+1tq1W9tf9MgBAEe0+jf4+gGqZc0HZ02uXjHCxqRifS4bJ0dVO6by/fem9X5SfB6bT46qZbyW2Bw/B9Ert6rJJ3U+TmN9vI/z7TVSY1mt42i8isaQ4uNa+Xy2aLufa25MP0/fV9TEHIW9D3s/S+7bt9fE+PaSXH/fZmPkqHI5AGBWTRv81Aej1GvRayvVL+JzRZbE+FjbbkskFadH5duVv1ap+q3l5qdFr61UP8/m0aL1lm9X/lqkYkVUJ2pjNW8qT0oq3ueriUvFiFxMqp+vtzlyfWy7jYv6+Drta4vWL+Fz+aIxkajd1mlJqYnZO3sPtuSU4mx7TYwVxafqov7CttkYPSrfDgCz2/3f4KOfP3/49bUAAABgXmzwr8BX333zRQEAAMCc2OADAAAAE7l5fHz8pH+XKMfvf//p9RxzkD/JiX5j//TP/5zPAAAAMJObl5eXv/xXR3c/fns+wwxSG3z+Fn+55+fn0+3t7fkKvbG+67B+AIAvNvji6enpdH9/f77C0bHB74sN1Fis7zqsHwCAv8G/ArKZlyJ/lqPnAAAAmBMbfABAkf3HowAA+8YGfxL2X2rEOqzhWKzvOkvXr9Qv1y5tLf9IlM21dL6X5ue95X1cas2O+qy2IGuj69NznXjWGIUN/gTkjSpfvlp44y4j68bajcP6rnOp9ZMxWzb33pq+l3TUea9xjfdcQ98Duj4914k1xyhs8A8u+vKV60tsBI5O1o0P23FY33V6rF/qcyH3ecEzA4DjYYMPAEiSzb+WlFxMqi4X70uOtkexqf5RnbD1em5z2HOldb4+xcb7fvbatwmt8/VC63IxKhUT9UnFKtteE1OrpY/G5Pr4GEvrUvXRuaVtNsbKtZfiPa3LxQjbnovDvNjgH1z02zV5I/NbNwCefC74L/rc54W2aYk2CTUxVi7et0UxEdtPY6O6JTSHPxd2DCmlcXy876fX/lzUjNUrRpVifXtNjG+PjOpjY1Sun42155bvL8XmKLV7Pj6KLcX49lQc5sYGfxLyxtUib2QAWCP6LPGbhFRMSilnrm+O7af5orqeSvcS8fG1ascqxbTMuSXWsn2W5Ogxroj6+JilY5X4nF6qvXY+pZhUflwXNviTkDe0lrUfTgAuQ967vvRmPyPkuIfNwB7mcM1Yf2A+bPAnxCYfOCZ57/pySfpDhi2jXWLMLS29v6X9RpLX54g5+Zy98o5QWoNRa1Tix9xqXOwHG/yD400LoJVuOko/QEh7VEbROW013tbW3F/UT8ql+fn0+E7yObXslZ+nX4NSe2+zv49Qhw0+AKDaiM3J6A3PrHqt2xHWn9cI0IYN/sHJT+X+g0+u+WkdQE7pM6LmsyUVk1KTcwut845seS+9xmrJUxPr272W8dSSPmJJn6VjWb6/V2q3eswHUGzwJ6AfClr4MADQQ81nS+vnTy7et9kYOfaUm0ckmsPSHL743D3GSmnJU4r17TUxvj2yVR+xtJ/y/X2OUrvn43OxKdGYmkuOuA5s8Cchb1wtWIc1HIv1XWfp+pX6pdqlXkuKj7GxUT8fb9k2G6NHL6pvqdOi1yoV72n/qC1i420/PSp/LXwfK6oTLXlaYpVtr4mp1btPLk+un/D10bUtXq69FO9FdcLX2xxatN4eMS82+AAAAMBE2OADAAAAE2GDDwAAAEzk5uHh4dPHjx9PtsjfZt3d3Z1DAAAAABzFzcvLyxf/pcXT09Pp/v7+fIVZPD8/n25vb89XWIp1HIv1XYf1AwDwJzoAAADARNjgAwAAABNhgw8AeKX/II7FP4wDAMfDBn9CfCEvpxsc1nAM1ne9UWsnefUfxNnq+Yy8l63uYVZ+/Uav57U8r9b73GLddQw7Vuq8t165R+QZed+11syBDf5k9vCCPCpZO93gbLnJuRas7zqyXlutmT4ffWajjMitcx45b/R3Lc9rT/fp3yu8Z+bCBh/4LNrIyLXUYz3Wdz1ZL7+GPUXPZ+R4AIBx2OBPJNpEAYD+ICVHLRHbXhuXk+tvj8LW+X5RnWdjfLxe22JF7VK8Upseo3ZLY1JxuXaty8UI2+5jcn0829+eC722JSXVpvW23db5flGdl2pP5YritS7VLnIxqX62Ts81NopXpRjbnosTtt2f52hsKs625+KEbffnetRzode2RFrac3FWKda2R3F6nWq3esUINviTkAfN5n451m4s1vfy9DNCi/9y8O21cb59DZtb80Z1EY3x57a/LTZX1O75PNFcbExKKU/rOFGMb49iaml/fx6NIWXpOJ7NrzmjuqVsrlQ+G5MSzSmqS7GxqfhSjG9PxSlt9+c5W87B5vLXtpTmUGpPxVm9cpbyiF4xig0+kKBvJIzB+m7Lr7X/cqh5FtEz83msqC333G299o3qWqTGyvHjRnOO5lIaq5Rn6ThRjOf7rNWaL5pjdL/K1mvfqC4Stdn+0bhRHx8TsTGaI6pL8WNE8aUY3z7ClnOIxqoxYo69cpbyyHkUY6VibB6LDf4EooeOdVjTsVjfmKyLL9iWrPnWr03eCwB6Y4N/cJf4MpodazoW65sm6+LLluTZ+LKW3IPmkePW9yTs/WiJSH1qfr6/lL3SNR89Vz9GaZwtXwulsaTOlyPbw/2MnEOv3L3yWCNy9sAGfwLRC2svL7CjkXUb+aVz7Vjf/dJn48vR9bqvKIeUvfLz7P2dcPTXSzR3KUe0h2cxcg69co+Y457fB2zwDy71wtIj6ukbFWOwvtdLnvven/+S+UmfHnrlOYItXwutY13Tc8D82OADn231hXOtWN856IbJmuHZlu6h132X8vQax+fwUuNci17rjH058jOteU+2vm7Z4ANn8kaJCvqI1lYK9kG/PHzxXyo+LvXlshe19+XbbZvodd+lPD3G8TmiPK3jaLyKxpDi4/aq9f73bA/PYukcauZYm9vHybVVm6dFz5w+l1x7NTGKDf6Ecg8cMVmzVMF60bpqQZsla5bq4+v1mdii9ZZvrxHF2rpSuyqNmerji9brMSpeqa1WLo/Itef6WDZHro9tt3FRH1+nfW3R+pyo3daV2lVpHJGLkTYt3tLcpbrUudUaI+TaF61P8W32OnVuRf190foc256K1Xy2aL0/2nbPtts4fxT23PL1cu2L1tujF9Vr/1xfH5PCBh8AAACYCBt8AAAAYCJs8AEAAICJ3Dw8PHz6+PHjyRb5u567u7tzCAAAAICjuHl5efnir/Sfnp5O9/f35yvM4vn5+XR7e3u+wlKs41is7zqsHwCAP9EBAAAApnE6/R/gjoLOcH0uuQAAAABJRU5ErkJggg==;" vertex="1" parent="1">
          <mxGeometry x="-220.5" y="1492" width="760" height="68" as="geometry" />
        </mxCell>
        <mxCell id="L4CnUB_kCd9V9FDW6dj1-5" value="" style="shape=image;verticalLabelPosition=bottom;labelBackgroundColor=default;verticalAlign=top;aspect=fixed;imageAspect=0;image=data:image/png,iVBORw0KGgoAAAANSUhEUgAAAm8AAABbCAYAAAAlQmIaAAAAAXNSR0IArs4c6QAAAARnQU1BAACxjwv8YQUAAAAJcEhZcwAADsMAAA7DAcdvqGQAABFXSURBVHhe7dwLcuQ4DgTQ9l7HR/B9fCcfzOfxBmadMdhsgAQl6sNSvghElUjwI4qSNe3pfvv6+vr5/Pz8I9t8f3//eX9//z2SUVo/kWvpHtxH6ydHi/bYf34/RURERGQBenkTERERWYhe3kREREQWkr68vb29/X5r47xeu2q/Fb6vmf3OUJ1PlmflPpgvi+pbRvOvkM3xbnPvzWfmfH1fd1sHeV2213xEOAeRadWZXv0K/DpEcTejc/L5dzyfV/cyf/L28/Pz+21tuLHtfHygPDJ67qP5V9EDIbfKNZR1jT6LOA+5TxatCeJu9szpjufz6g55ectu2KffyFXRjaCb47603+VV7X0WWe7o/aH7RqRv+OXNbizETJV+WzlZWZZvevVHaI1pZa0HY/Yg9GX4bp8IlpW18jnO0Hrws9bcUBbVZ20A9a2cLSr9tnKysizf9OpFwPbIlmeRbOPvTV5XHGf13p6c6Jgj4+u4DcLr1UOr3tdlOaZXv6qhlzc7ebtpEdliRHVoG6n0W8nxevmj/c0wY0xr1zM6Tiuf66Kcq7XmDz4H9VGZ5+uzHBPVoW2k0m8lx+vlj/Yn0mP7aI/WPn0Svjdb65LVm1k5hvN6+V7Uzqv2zXm+fkYfqyu/vGERPD7eIuvXL/Lo2L0+K2PONnoOe4ycW28tjppjVWvupjd/8Dmoj8qg2u+oSr9ZTqbXZ2VMkSNEe+9J7Pyj6InuV4/vX/s+Iwc4bw8et9J3b64z+ljdYX9hwS9StIhXuMMcVqG1GqP9Lk9n+56jtwfveN/MZOcTxZ0cOZ/Z1/Rua3elw17eRuBG9yH3cfX1sRv27DENn/OsORzVr8iV7D7l0N7uwzrtfR5wH1v7gb39Wb6dW4T7tRg1o4+VHfryhk2ZXUCw+ijkb2dvUFy/J16b6LwtMlan/S5PUXkW2b7u5SHnyfcAngGIytoy7gOxBa7HjL7YjL6PnN8qbvEnb5Etm7fniD5nss3XmiM27Bnutla9tTnLUXM4ot+7XUNZx52eRbJd5Rlw1LPniP1xxFxXVX55i27mykL2LmDWr283Onavz8qYs42cQ1Se5e51xVrMdNT8t/Zbqe/1m+Vken1WxhSJRPsuKtvryXuxsp69+7dyj1dyZpjR54y5nnW+Vxn6kzcsBmLWIlT6HR27lz/a3wyVMa2M85Ab5c/A4/lxorkgxz7PlJ1/a/57XNnv6Ni9/NH+RGyP8L7B3hnZP+jjiXjtfEC2xh7nROs/K8dwns+3zx5u59tU++Y8O4YZfawufXnLTtLKETj2snaQ1aPPVnvO8blRO85nvfo9qmNW8qIcX5Z993o5VoZgvs7n4PMIWd+tcgTbW4aIZOXQatfq13COz43acT7r1YtE/L7J9k5vT3H9aP6K7Bxa4bXqoFdv9uRExxwo95+Gv0fhZfX4BK73fJ3PwSdw/au47f/zJiIiIiJ/08ubiIiIyEL08iYiIiKykLevr6+fj4+P30MRERERubN/Xt4+Pz9/D2XU9/f3n/f3998jGaX1E7mW7sF9tH5ytGiP6demIiIiIgvRy5uIiIjIQvTyJiIiIreHf2zX4+On0Mtbx1M3xixb1w83KcfZojlYHKnS/8w5tPo6+lxbbOxezDTan8+fPZc7qZxblmPlWbBWXcTnc9xBNo+7zK/qyvn6se07/rHd1dbwCHp5S9jm0AbZbsb6+X8Z29+0Z1+XbB5Xsjm8Ol5zjtmO6HNllXutksPXDeFZH76u1yf4Nj7uonoed3blemZjWzn23p2u95n08pawDfHUTTHDUet3l2ti83iFBzMefqudy5Mf2mex9e2tcSWnJ7qWdvwK95fME+2RvXtvZXp5k+Xwgx3f7ZPLOY7WG8vXc54/5u/45DKDco6Zsv64vDe+r89yeqwdP7S5XwsPx1m9ycqy/J49beU18LOqpbVfsj58Ob5HfaCMy70sxx/ju8/jfOi1A5T5HGjlIp5KL2/yEuwm9v8l5o99zLrZ0b/HY/JYvTnhmL8b35ah3EcF+jT2yfMdxefH/XF9lNODPryoX4ve+L2xR/O9PW1fkZ0/gtn67NHqexU29xn7xfcDlb5Hxo/GqIjabR232uaV6eVNXoLdxB4f72EPBw7uPyrjB8ueOY20jeayF5+L8eNUzj8yMs/svKp9jMxv6/mYPW1fEdYDsXUNI1v6PltvXtG5bj0X7qfS9+j4nFvF7bJxM1vHfVV6eRPpsIcGR/Zgu1r0QIyMPrCvVj0vuZ/RfcbX2o45YLRvqeO1lXvRy5u8LH7gz3yoRz8keCyuN5WcrayvIx+4/pyjsXA+Pjy0z+ozltc7L+7XYq8j+nya0f1oa8xt7JgD5auwubb2j99jCPmb1ulfenmTl2Q3tX/YI44UjWcBV8wpggceHn4+UL5FdG4WHtf1xrJ67oMhh2OvqE8LqRvZS5Vr7Y30fXe8xxDyr6Pu81Xp5U2WM/qQv9JZP2BG18Q//DharH5krD3nf8frfNb1fJo7XuvZcO9UXb3XtNfvTS9vspS7PFD4h030YOaco4yMU8mNzqWncv4jfVbmOao3P69yPpk9bV9NZS22rs2rrHPlPLKcnj19+5yW2XOTGr28yW3ZjcxhN3zloYIHQ9TePsF/z/j2iGgOPCbnVOfExxW+P8TZtpw/53icywFRvxYoB85rjW1G8709bV9NZS18vY+e1dY5m1/lPLae65F9w9b2I+0417exz6fRy1tHdRNKbOv6WbsoIq1yDpSD/x7xbX1kejm+3ufhE/wx1xmujyKSlTPkRfmtPqwOEfH1WY7hvCi8rB6fwPVeVlbJH227ksr8ezmttfB1HBWj+WfJ5tMq750H5/jckXaRLMcfj7Tf2s7jMp+LQPnT6OVNREREZCF6eRMREZHL4deg0qeXNxERETmd/3/X9OI25u3r6+vn4+Pj91BERERE7uyfl7fPz8/fQxn1/f395/39/fdIRmn9RK6le3AfrZ8cLdpj+rWpiIiIyEL08iYiIiKyEL28iYiIiCxEL28N/m/ByDZb186vvY+Zov59zOT7q/Q9e/wMztUH82VR/Qx+/CyqRnJ7Zva1Er/uHC1cz219sFZdy9Z2Z/Hzu3qOR4w/2ufVa/Aq9PKWsA2Gf8HZQhtujK3X3jXz6++vw8xrEY2BOMqRfY+wdeRztuD1tbKj8RyysoqR3J6Zfa3Gr72PTHRfRu0tGO/F6j2+td0ZbC48P8zxTvPcy85JzqeXtwBuOA83ndTgQTWbHhRzRHsctNflTFuft1vbnYnnZ6IykVF6eZPl8AMa3+3ziAd31mdUjjm05rGnXSvH12c5Vf4HTNRX1r8vxzx8zNLqE2XZeFyOfqJ8X4bvnItjH09j51x9KRnJ3eIOL0e9c7Q6v0/w3T4RmV5Or55V8jnH53I7n8t5OM7qfEibXt4Cd7j5ZYzd7Hbdrrx2fg4W1QdQpV0vh+ujHK9Xv1c0n1ljct9Zn1Ed2kK1L/D5fOyj188q7DwQGazBVtF6jfSJ+XEfq8E5I6Lz6eVU+vAq+SN9cq7PxzF/j9pYtMYRvbyVYYPJPW29NnZdoxhlbXgOlQdQ1s7b2je3YeiDoyIa344xZm/srfwYEM2lYktfUf6rwvogtqwxi9bcoH9ElBNBLsKOV8XnzOcTrYvP6dWzSn6WM6KXP9qf/I9e3gqiDSyvwa5rFLPM7OsIfN4W2cN+Rf58dB+P4bWK9sasNUU/CD+OfecAHpvbPgGvgTyDXt467EGgm0Ou5n9wITz80MrqR1R/APo8++T7BPPwMcNov5gnz89wPxajZvRxN9FaMTvPSl5P1A+uGb5zyD3ZtcE9gKjgNtV2T6aXtwbbQHpQyB34H1w+PK678gGIe4djhqhfiwzmEq0H94GoOvI8r1TdO5bnA2URK3+FtZE2vhey/QDYFxzSppe3hB4097XStek9uPbY0/esedl1uMP1yM7Hzw1z7Zm1Nq/O1pMD5U9na9DaR35f7qX9+kx6eQvMvLFkriseVNGDmI+znN4+mtU31/dEfQL3fSeVtaia2derOXNtto515hy34vmZqKyid76j61HJz3IyrTqZSy9vCduEUch5ovW3h0n2MGKW38P9+/DwEENEc6jkRGb0zfVRDovaVNpVtPq2zz2472y+UR2PX+0rw+19P/a5sr1rM2LrWGfOcZTNheeHOW6dJ/fH/fTqWSV/pE/OjfKRA1EbC86T/6eXt4BtmixkzNY143VHREbLwfcbBeO6Sg7440q7Sg7z9VkO4zZRO1/Wq/fQnw+U9/RyuE8PZVkfXI5+onxfFtUb3x6B8tXxOfW08np9jI4FW9udxc8vm+NIeaWvrD4ry/KhlcNlPjfKN702qMen/E0vbyIiIiIL0cubiIiIlOBXmnItvbyJiIhIyP9/aHpxu4+3r6+vn4+Pj99DEREREbmzf17ePj8/fw9l1Pf395/39/ffIxml9RO5lu7BfbR+crRoj+nXpiIiIiIL0cubiIiIyEL08iYiInIz9pcDRDJ6eWvwf8NGttm6dn7tfVzlynn48c4a25+rj7OcOZbU8DXx+4KDVes4Kkbzz9KbT6ve6kb+Vqfv68x1sLF8XOGqca+ml7eEbQi7eRBP3SBbzbiZ/fr763DmtcB4V88DbOyz8DlbnHXONpbcR3bdeX8gPL5/or58vY+eSt+rwTlttadtlc2R194C5XI8vbwFopsHG1NqcDPPdkSfPdGYV8zjDuy8dR9I1ZHP0hWe09lcWnPkc7qraJ6rzP0V6OVNlsMPaHy3Ty7nGGH5rYdRNA8OD8dZXVTOfD2+99r6+lbeVq1+URbVo4zLjS/Dd87FsQ+Zz9Z19g9l/ZDPVfZzKycra+VztFj9yHPRa42BMq7HsQ/Ry1so2pi2YfTAuS9cH1wjf+xj9o1vfZrqeDxPw21H5thry/VZ3la98Y3PgUo7j/vg9ohePzIG69xiOYjMrJzVRHvSjrM1RR0iWotKjtfK57ooZwvrg7XmAT6Hj33snd8r0Mtbg20QhG0YuS++Pmdfr+p4nBftLTuuPpx6bbl+Lz/f6tw5p9rOi/LleriWiOgazsp5dVgDj9ciy8n0+my1nalybibKkZhe3hps4yB4k4m8OtvzHHqYPkflenN99Kzcm2OfHCbqh4/vgM+Fz/UKs+dg58Uhx9LLW1H0oJB744fJ0dfv7PGqts7L9jwH29r31nbejD4kZmsZXW+vV19VGYcD7Lu//r5uRf5cEEebMaa/Ntk12DrO1navTi9vAW2O9dk15AdK9lDZA3vlrPFGHT2vqG+LnqiNRdVd1/uV2Br7QBn473vs7WeF629zs/PszdGfi4+jYE5njBeNY9Fy5vxWo5c3WU7lITiDjdH6wXLWPFbTWrOWre1kPvyQ9IHyu3jKfjniPPf0aXug1X6k76dcwyPo5S0QbU47vtOD66muuNmjMWfNY+W9tnXuK5+z/KtyHWflRLa2u8qM88lyMpU+t4rGzeZy5DyeSi9vCWw2hDbZ+fz6++tQuRZ8/Xx7+wT/PYLxfB8WKIcoB3n22cJtfb977ZlXxda5b20H3N73Y59yjsp1nJUT2drurirnM3rOrXyu8zn2mbH6qC3KI5yf5XnRGGhrn0+ml7cG2yAI2Wbr2vm19xFplXOgHPz3Ft9H1oZzkMefEW7j+bLsu8fldsyB8kyrjnG/Xm+MSrusD98egXKZL1tXXv/IrJzI1nZH680nq6+cD+f43Kgd53u+zufgsyVqZ7K2US5U2iBQ7j+fRi9vIiIiIgvRy5uIiIjIQvTyJiIiIrKQt6+vr5+Pj4/fQxERERG5s39e3j4/P38PZdT39/ef9/f33yMZpfUTuZbuwX20fnK0aI/p16YiIiIiC9HLm4iIiMhC9PImIiIishC9vImIiIgsRC9vIiIiIgvRy5uIiIjIMv78+S9juaDu/t8b/QAAAABJRU5ErkJggg==;" vertex="1" parent="1">
          <mxGeometry x="-827" y="1600" width="623" height="91" as="geometry" />
        </mxCell>
        <mxCell id="L4CnUB_kCd9V9FDW6dj1-6" value="" style="shape=image;verticalLabelPosition=bottom;labelBackgroundColor=default;verticalAlign=top;aspect=fixed;imageAspect=0;image=data:image/png,iVBORw0KGgoAAAANSUhEUgAAAecAAABKCAYAAACB+JzQAAAAAXNSR0IArs4c6QAAAARnQU1BAACxjwv8YQUAAAAJcEhZcwAADsMAAA7DAcdvqGQAAAqmSURBVHhe7dyBjeO4DoDhzGsnJUwJ28cUlTaCLSUtpI15j+9CgOBRFmnJjpP8H0AkkShKseXR7txhv+73++/fv39Pf/78OWEc1xKvjj08F9cTXmZPfF0ul9//eXwEAADP9v+/OV+v19PPz8+jCSNut9vpfD4/PgGvhz08F9cTXmZP/OfxCgAADoLDGQCAg+FwBgDgYBYP56+vr8e7ZT5PPkcx2xY1xZ5r3eo7rCXriWK2LWqKreoif21n3YN3vZfyvXqRVcm1qvNgf5v9zVn+D3AfszeD1Hwlr/Iw+Psm8en3DpjFP1uttq3Is7zHPBiz66+1ZTPwp7XXxL0DgP2sOpzlh7TGCFtnqV6rP8pv5Qpta+XYtqV+355VOeCW5tK2qL81Rmn/Uk6GrbNUr9Uf5bdyhba1cmzbUr9vx7jetbX92byWTM67qX7nVr5tW+r37ULblnJUJgd95cNZLrj+SmTkb1O+TqteZb5M7lKOtvn3IlN7lsxcNkf7ozbL9rdyMnydVr3KfJncpRxt8+9FpjbW6V1b35/N8/0ik/Nuqt95KV/b/HuRmWdWDnJKh7NeeMt/XmLHZ8a15otueDY3W8+qrKOnNy47l83R/qhNZeu22PG+TqQyXzY3W8+qrAM1rWtr+c+RTJ1PvI/V77z2GmXH9XLWzo/YZv/NWW6ID3/j1ppVBzHuHQA812aHs/wQ9uFFh8CI2fWsmbXlWoyMX8uvv7UGf98kvGytrNn1rC1ro2/W9Z9V55VUv3M1f7Znz/9ONjuce+SmZQ6BiqiexAxRXYlXEq1foop7h6yZeyWqI/HOou8r0RLlSuwlmlsCdU87nEdU/jS25Z/cRmrLht1ybVl7r+Ed7h2O4xPvY/U7P/sa8aytUzqcowNlywvfmi/6k1glt2rL2t5Wc+35HURlvi3XtmXtT9e6tlWZOp94H6vfee01WjvOm1UH/yj/zVlvgMbaC+/r2HryqirzVXKX+DWIWbWtVo0t5hKz6vo6tp68qsp8ldwlfg1iVm38W+/a+n6bJ6+qV0dkct5N9TuvvUZrx3mz6qBzOLcurLRr6GerNc6zdTS03fL9yn8WrVwRtYlsrtZt1VnSGrPU3pprtE0j0mr3bB0Nbbd8v/KfRStXRG0im6t1W3XQ17p2/tr6PNuvoe1Wr1/4nHfQ+y5L37nV1soXS+2tcZVaS3WQ95L/zRkAgHfG4QwAwMFwOAMAcDBfl8vlV/7bwPf396MJAAA809f9fv+9Xq+nn5+fRxNG3G630/l8fnwCXg97eC6uJ7zMnuDX2gAAHAyHMwAAB8PhDADAwXA4F8m/erPG2nEVe8yxxtK6nrlmmbsXM1Xr2fzZa0FN6/pLu8YoX8PW9qGiPg1vqS9i831EWu1qabzt8/GpOJyTXmGj8C/y1Oi/YtSK2baoie21nntpt/tl5OdDa6ytb8OK+iWstWu1Y2xYUqtXLzO/7bfxqTickz59o6ylD2Xv4T0aXTcQifbHUff51muVWr6+9UrX6kg4nA+itVGjdmnTsOxnfd/KtXo5tn8pb0Srpm/vrcH2t3J6ZJz/YeLrSlj6udUvWm2t/J6RsciRa7t08MywxxxH9InfuYLD+cXog6yx9IM5k9vL8f2tvIiOFdkxS/xafD3fH+X0aA0rqivRm783dzXfGhmLHL3Gkah9Kb8lM0ZyNFqWckbXulS7IlMnk/MpOJxfiGxY/0DJ59ZG7uVm6vn+rfh5hV1fZq2RyvqjOUS2RmV9a7+PGBmLueSaa/h7MoPW1YjucSZHSLuG5GVka/dk6sya611wOL8B2chHow+adeQHLlovPld2P0iORnVvZ+bw/dE8mRwh7Rq2X977UNnaPZk6s+Z6FxzOH04fRhteJmcG+zDKq39Y7fwalo5v9bdInp/L83UlRm1RE+PkPvT2Q8Tu357MHJk1rFmnsGuV9z60fS97zvUqOJw/nH0gbSj9IdLqj+hDL68+tH2NaB0Slu/rzSX9voanOT5GRTUl8Hxyz21om7Lv17L1tZ6ta9+3zMqJrB23xp5zvQoO5zcwe2PPqBcdOhpLpF/m7+WpkbVW5tnL7HuJOt2nNrR9Fl9fa+srwOF8EPJQ+h/M/nMrZ+0DPbueyIyP5u3JrLVSM7POqt76rMz3aRkZizn2uAeZOWblRNaO8zJ1Zs31TjicdySbLQqlG1Qj2piZnIpePd9v8+R1T2vW6nMsn+tDRXUltF35vKW5RTXfGhmLOfa4B5k5ZuVE1o7zMnVmzfUuOJyLRjZnKyzf7vuFz1H2czRORO1aa2mMD233orbI2hrSpxGx/a0c4fOisFr9+qp8v9Vqy+RXx2Ku1jWeeQ9G5piVE8mOy/T36mRyPgWHMwAAB8PhDADAwXA4AwBwMF+Xy+VXfr///f39aAIAAM/0db/ff6/X6+nn5+fRhBG32+10Pp8fn4DXwx6ei+sJL7Mn+LU2AAAHw+EMAMDBcDgDAHAwHM4F9l+vWcvWGKkj1o6vjuvlj34PMVJDxvZipmo9mz97LdhH675Ju0aFHecj0mqP+Fxb20dGJn/PnE/B4Zwkm8X+6zXVzaMbztbQOtVao2TeoxlZk72eUcy2RU0cV+v59M9z9Tm2Y21Y1Z8PrdxoHomezHfcM+eTcDgn6Kax1mweX0NEbZgnunfAqFk/E3qk5rP2b+Y77pnzaTicdxBtPKu1CaXNR2SpX9tsfyvP5szUqmnb/fsoqmSMv+6+poSln1v9otXWyu8ZGYttyT1Zena9Su5s1bVuadY6jvJ9noHDOWGPDeLn0AfNh/8B7vN8v7A5kUyNPdm1aFTpd7L899Tw37d6Par51shYbEvvzRLJ0VhjdLyS8bPXGtVrzVOt3TKrzjvgcF5JNk/vYRiRre3z5LPf2Eu1ou8R1Xim6rVu5WdrVK7HyPUbGYvn0/unUb1vo+MrRuaSXA0Z643UtmbVeRccziu0NmmF1PCBf5PrUrnW1XwgktlHvl8+V57j0fFqdK3y6sOSXA3fJ5Zqi2jcmjqfhsO5SDaL30RrSA0bEZnLxxb2mqdK1lG51pl8+x01Rm1RE88j96+y79aYVT+z1ky/jxbpW7O/dZzG0hz4B4dzwZ6bSufysYVoHolXkrk3W13TqKYEXpfsFRvaNsvsWja0Tdn3FWvHtfBs1HA4J8lGXbupZNzSRp/9EMzw7DVVrvfIvdnKEe8pcmQv+dD2o/Hr1DXq6xHwLKzD4Zww64d/tElHN64fX12r5I7W6GnN0VKZf/ZaRbTW1hyt75ZZ08hYPNfovdvz3q+dKzNuz5xPw+GcJBsliizZZLoBbWi7F+VqvrwqnxfV6plRw463oapz2FyNlijXhvJr0NB2VV1rNd8aGYvnGr13e977tXNlxu2Z80k4nBNkk7SiqjU+quVzNSd6tf1Wpa1Sw7JjfVi+3fb791FEojwfVqtfX5Xvt1ptmfzqWBxD696M3rvs+Er9Vm52Li8zbs+cT8HhDADAwXA4AwBwMBzOAAAczNflcvmV3+9/f38/mgAAwDN93e/33+v1evr5+Xk0YcTtdjudz+fHJ+D1sIfn4nrCy+wJfq0NAMDBcDgDAHAwHM4AABwMhzMAAAfD4QwAwMFwOAMAcDAczgAAHAyHMwAAh3I6/ReslzVAhgIQ6QAAAABJRU5ErkJggg==;" vertex="1" parent="1">
          <mxGeometry x="-163.5" y="1600" width="487" height="74" as="geometry" />
        </mxCell>
        <mxCell id="L4CnUB_kCd9V9FDW6dj1-7" value="" style="shape=image;verticalLabelPosition=bottom;labelBackgroundColor=default;verticalAlign=top;aspect=fixed;imageAspect=0;image=data:image/png,iVBORw0KGgoAAAANSUhEUgAAARUAAABbCAYAAABdyxFKAAAAAXNSR0IArs4c6QAAAARnQU1BAACxjwv8YQUAAAAJcEhZcwAADsMAAA7DAcdvqGQAAAYFSURBVHhe7dwBbqNADEDRdq/TI/Q+vVMP1vN05d1ach2b8YAhkPwnjZLMGA+wjENXEa+fn5/fHx8fL8AaX19fL29vbz+f8Ozkevjz8x4AWlBUALSiqABolRaV19fXn3fLNE5eR03j9rCUd6851zjTvuxBjm/UNG4PS3n3mnONM+1Lt7Y7le/v719tqe+ZPfrx239vPdas75k98vHz5w+AVtNFRW7btK1ht9P3lZyVmBk2n8+ZzRHF+WbpZzvmY4SOR2OPyh6rvq+ch0rMDJvP58zmiOJ8s/SzHfMxQsejsSuZKipysPY2tuPgKzm75/X51uSMckR5bFzE55ndj0dROQ/d58rnW5MzyhHlsXERn2d2P86kXFT0oK3sBM2IctoTms3bfdJnj6UavxR31LFdweg8cB1cB/+nAqDVUxYV/RawbQ2fY20e3AfXwT6e9k5FLijbZi8Eifc5pOFa/L8f18F2/PkDoFW5qEj19VV8tqpHopy20mfz+m+DKE5EsVGclc3ZrXpsz2B0HqrnKooTUWwUZ2Vzdqse21VM3anowWvrOOhKzuq8Pi6LrcT5mNG4jZPXqtE8z6JyHqrnysdlsZU4HzMat3HyWjWa50rSopIdlPRr08+RmX7Nl20jKjHCxi3FVuL8uI+z49q0375aWZ+2R5Md09rzUIkRNm4pthLnx32cHdem/fbVyvq0XRn/pwKgFUUFQCuKCoBW/55R+/7+/vMRALbhwdfYhAdfw+LB1wDaUVQAtKKoAGhFUcGimV+Fdtg63+z2e8fPOvp874GigpBc3Fe8wGd/jXr1X6+eEUUFoUf4uTjug6KCXeidjm2RpXHti8ZH2wh9r7GjeGFj7Zj97N/rq74X+tm2yGhcLMVoXzZ+DxQVtJOLW+90bPMXvY+LFoWN0fGoL2NjR/E+1sbrZ/9e2O38Z9v83D7Oj4vZmDOgqKBd5eLWhWBF29k+ee+3076MzzmK9/z2kWiOkcrxZzF+/yvzHYmiAqAVRQW7kG9T385O7wI69tnn2ZLraigqaCcLSBaob1fg93lNMbjy8XegqABoRVHBXcg3t78LuPefCEfOXzn+LObsdz0UFbTTxeCbXyQ+7t6LJdpvv0/+GCJRHml+Wx/n5xKVmLOhqGDR2otYtvNN+62lcR8rRn2j7cVSjHy2LWL7l2J8035rNC58jBX13RtFBUArigqAVhQVAK148DWAVjz4Gpvw4GtYPPgaQDuKCoBWFBWckvzQC9dEUUHK/pLzSLO/HLX7d/S+4hZFBSFd2NqOWqyzBcXbsi16UFRwI1rYRxUWisL1UVTQTouPvPpCFPVZOr42JuvL4sVoHHMoKrjRcbcgC1Ty2DucqM+y41tirFH8bD6MUVRQoouvysbqYo36VJS/GpMZ5azMiXkUFQxFi+/KHulYzoiigkVHFhSZyzdcD0UFKVnUR36ry1xRw7VQVBA6uqBk9rhb4Q5oXxQV3LhHQZH5/GL3+5HFZEY5K3NiHkUFIVlcUduTLnJt0eKuxFij+Nl8GKOo4IYsrKxVRHEzfdoyPsbGRtv5eG80jjkUFQCtKCoAWlFUALTiwdcAWvHga2zCg69h8eBrAO0oKgBaUVQAtKKoIGV/aXpGe+3XWY/3KigqCMnCsr80PeNC4xew50RRwQ0tKNZZCwvOh6KCdlp85FVbxI5X46woPosV2pfF2L6lcd+P3ygquBH9WSELaebPDY3X5heiH6/G+XGrErsUo33+vajkxn8UFaRk4WizC6zCx/uFWMkXzevzqGpsNZ81sx+gqGCBLBxtZ1pAfoHjXCgqKNmjsEg+37bozmftmfvRUFRw44gFI3PYOyFtW0T5pHWI8krDLYoKLmem6O1ZILlbiVFUcEO+gf2C0TuLqq3bi5n96NjnzJ65HxFFBSFdSNpmF9Boez9u4+RVjfJYM7FL/D6IrtzPgKKClCwcbWuMtrfjNk5flR9X/rPIYkXUJ6qxmjfLg/8oKgBaUVQAtKKoAGjFg68BtOLB19iEB1/D4sHXANpRVAC0oqgAaEVRAdCKogKgFUUFQKOXl78DV61k1aNImAAAAABJRU5ErkJggg==;" vertex="1" parent="1">
          <mxGeometry x="-827" y="1740" width="277" height="91" as="geometry" />
        </mxCell>
        <mxCell id="L4CnUB_kCd9V9FDW6dj1-8" value="" style="shape=image;verticalLabelPosition=bottom;labelBackgroundColor=default;verticalAlign=top;aspect=fixed;imageAspect=0;image=data:image/png,iVBORw0KGgoAAAANSUhEUgAAAv4AAACWCAYAAACmXYynAAAAAXNSR0IArs4c6QAAAARnQU1BAACxjwv8YQUAAAAJcEhZcwAADsMAAA7DAcdvqGQAACKfSURBVHhe7d3NkexIsh3gvhSGmxLhijBLKsBVKcANReCGApTN5inA5YhAEWpDZZrmPXVszpznHj9AAAkkzmfmlokID48AEImLabvT/evvf//7n3/729/+sG3+8Y9//OHrZ1t479hdee+a7ff7f//3n29m5/i//+M//vj19fX158+xmZmZmZ3gf/2///Pzzewc//O//rd/vvh/fn7+NNms7+/vPz4+Pn6OzMZ579hdee+a7effkZ0J++2//BybmZmZmdkb84u/mZmZmdkD+MXfzMzMzOwByhf/X79+/Xxr07zWuNGaZzh6LbPXLz57gbwjtOoeNecWV1rLUapzvNq5e8+YimvdiqPxHGfMZ3YU/t0gjnJkbbuex/4T/z//vNa/zCjWw9Fqe7KnnL8fxOs8/TdzNjyvsjjaGXOYHS2e//rbifCfC7aC/6qPmZmZ2QXgpT/jl39bYfrFPzYdYgWupzWrObI8DYZj7tOcgP6sb5W9c/A4fB+pOZIzg+tpzWqOLE+D4Zj7NCegP+u7q5kHfOv80Zb1V2MA/a2cGVxPa1ZzZHkaDMfcpzkB/VmfHY/vjd6D1n1BHwfTY7N3k/2Pgur3ENDWyoFeDve38uzapl784ybHpkPsvelab0vNrEZWh/MyWmd2HSOOmGOk5up5td6WmlmNrA7nZbTO7DrubuT8OQf9WRvj/ipnhtbbUjOrkdXhvIzWmV2HrcH3AfcgawPu49A8szub3dP6u8jGrsjR/irPrm/4xR83nenxCrM1R/NbedW5rdzQR12/3rrPOLcwey6j+a28s87tVXrnMnr+nIP+rA1G6+6lc/SM5rfyzjq3J4trmYXi+4B7kLUB95m9M+x9DRVt+rvQ301YkaP9dl/+O/5mZrZMvCBkYWbjst9Q9vJvNuulL/7YyBxbaI2tdWyM79t5XvWw1/uydw3eM7aC7789Wfbngf4etH+lM+ey47z8n/jHRuaY3UiRrzUi7Fh6vX3f3kt2byL20FreMzbD99/sP8t+ExGr+ff3PvxXfcwuLh6usy/JR7jCGszM3tmK56yf1dYy/OKfvXxkm6t6SYk2/V+Hvc05Oude1Ty63j2OOpfeukfPLcsLWW6Wx6o5Vxs9t3d11PmP1s3yQpab5bFqztVGz83M7BWq52rQZ5WfZ7bF1D/xxyZDVJtL86rckTzN6fVzXnyO6s2zwhFzjNQcnVfzqtyRPM3p9XNefI7qzfMuqvM66vxH62pelTuSpzm9fs6Lz1G9eWwfvrYae6y6/2ZX19rrSnOznBVaa4pPu4/yxb/aPNGOwHGG86qcMJKn/ZrH/Qi08yer2hB7VTV0jlZeJmtHvWpMGMkJnNfKHcnTfs3jfgTa+ZNVbYh3UJ1Hq706/71tiBbOa+WO5Gm/5nE/Au38yao2hK3D1zUL4O8w0oY6HGjnz8Dfze4G+5uj0sqpxnH7SE6IYw2023347/ibmZmZmT2AX/zNzMzMzB7AL/5mZmZmZg/w6+vr68/fv3//HJqZmZmZ2Tv668X/8/Pz59BmfX9///Hx8fFzZDbOe8fuynvXbD//juxM2G/+qz5mZmZmZg/gF38zMzMzswfwi7+ZmZmZ2QP4xb/D/0U622rr3umNW7Unuc7qfd6qt3quGTF3L1aarcf5q9fyTu54nV69F6JGFlfDa7ri+s7QO++t1yXGcezFNVbUW6G3jqw/2q6y/jP4xb/wtI1g69xl7zzxv7bI/8XJLFY7oqbd87q+as14HmGPa1ztWRVrsrWqPYD2Fe5y33SdfF2ewi/+hadtBFtnxd6pHsarHtJHwoP0DmtlWLfZu8Cebu3rO/5Wn6C6J1vvVbYH/Lx7Jr/4m93cyB8Q+B6f/L0Fub28raq62t5bB/dXOT0xTv8Q1LoRDMdVf6jaqvyePWOPhjVl66vWnLUFbsd3rlGNA+T28gLncrCRfnxm/aFqq/J7emOjvbWnWfXyr/mcw23cHrI2QB8H0+Oeqg60+tGW9VdjrqZaI9rjs/WCr/eex3F7QJu2B27D91Z+4P4sD8dVP1TtGa2p3wFt2v4O/OJvdkHZH8Rx3HqA92D8SA3OjRh9+PEaZ8ZVeuvQ/iynBzVYVjeiN39v7tl8tmfsWXiNWF/WNotr9HDuyJyci2BaD6F1Z+edzWdbxs6OGcnnHPRnbcB9HJo3Suv15svm4Rz0Z21ny+bGuo7G5w/cFtG7Lr187R/JW4lrav3e2u/OL/5mD8EPthY89NgRD7+sJs+9dR06piWbI4zWmFnf1vMJe8aeideI9WVts7hGy4rrlK15xMy8e9Y5MlZzsjEt1RyK2+K7jkMbZDW2qtaI+Xr9wDnoz9quKltfdu4zdGxWr1c/y+d19sYD52mNsPdcVXWuOu+d+cXf7KL4YbP64XaEuz0w73BN7VzeE/f3TvePn5/em7aKX/zN7GV6f7BFmwbD+Kq/Enm9P0S1bsReR9S0NeJeVHtC71nEXkfUHKVzxXHv97AKny/C9sFzMMTnWfdyL94DiJ4zzpXXg3gnfvE3uzA85K7+IMeDkR+UCLRvEeedBdO+3lzRrzUUcjT2ympG2HW9w16IunEeCMyjx0fDXBpWi+tz5j06y5X3QrauiHfhF38zWyJ7UCJaon/mD7bI3eqKf4DuOR9b4yr7YtVewG+KRRsiO34XT/09xX3M9jHaK9mYq6vO9UjvtK/84m92cb2HW/Zg3/OQqupV62j1QVazZ2QdMzVH1jmrtz42cj6VPWOvrDqvrbZcp1XXcWbeLeuE0bHI01xW9VdzXEnvOvT672TFmrP7l7Vlqmv5jt5p31T84m/2BvCwQux9SK2ut1VvHdqf5TDN1YCsbgTaQfNac4fZfLZn7JWtPq+RetHOOB8BWg+BdhiZl83ms9Gx0a65HOjP6Lgqb0a1FrT3aE5vjb3+d9I6v2jXa4H80Wui40fHVbL1oG58tiCvwvU4Rq0+16vxi3/Hu91wO8/WvdMbV/VHOwLHkI0Z6Ue09PoBeVl+q0b0ITLcX+UEzcuCVf34BO1nVdtI/uzYV6vWq6o2BI6hyoeqH5HR8Vmwqh+foP2sahvJnx2rOJejp5W7tQ31ONDOn4G/Bz0O0YbItPr3tB2pN9/W9cQ4jkyrto7l3Oo70/Y41kA7f87gWhroZ3oMOu6d+MXfzMzM7Kbe8Z9KV550rkfxi7+ZmZk1+YXL7D34xd/MzMz+Df5+M8Iv/df0pHvjfbjGr6+vrz9///79c2hmZmZmZu/orxf/z8/Pn0Ob9f39/cfHx8fPkdk47x27K+9ds/38O7IzYb/5r/qYmZmZmT2AX/zNzMzMzB7AL/5mZmZmZg/gF/8G/jcamM3Ys3d4LMeRRuqvXEOr1tHn2hJz92Kl2Xqcv3ote529npH5rnaNMrNr5PwV5xc1srgaXtMV17cS3weOI2ytW407ap0B14EjU7XPWlXnavziX4gbHv/aKMS7bgBbb8Xe4fF76qwUa3h3es01Vjuipv3LHa7vq9YYzxN9VnG8+nmjYk1Povcj4mr35Mz1VHv1yDVE/XfkF/8ENhg7eoPZezhy77zLHsQ1utu5ZPfW7I6wl1v7+V2eN+/kqfek9ez1Pp3nF3+zm4uHHiLD/ZrHx/odn9oW0K6xUlVP23vzc3+V0xPj9A8erRvBcFz1h6qtyu/ZM3aVkTX0crhf8/hYv+NT2wLaNSpZbgQb6cdn1h+qtiq/pzc22lt7mVUvVZrPOdzG7SFrA/RxMD3uqepAqx9tWX815lWwnmpN3M85fFz1cWRmXrp7tbi/yqlgP/PYrA7atD2gjfurPM5R3F/lvJpf/BP6UDQbdeTeiYeI1kcbQh802q95ONbvgccqtHOMQM0Qn7reWXp+Wk/7s5we1GBZ3Yje/L25Z/PZnrGrjKyhl6P9modj/R54rEI7R0svv7dO0DztV7P5bMvY2TEj+ZyD/qwNuI9D80Zpvd582Tycg/6s7ZV4PdmatJ9zcKzfszERWnuG1tRa2Zyck43JYKx+D701BM7J9Gpof5ZzBX7xH4QbajZry96JMRpaI2vTB82ePTszNlvLXnougecZOf/MzDqr8xqtMbO+recT9oxdqbeGkXVq/4yZsdlaWjR/dKzmxTGfLxu5PpWRsZqTjWmp5lDcFt91HNogq7FVtUbM1+sHzkF/1nYmXsPoeSgdo3r9qjfnqnVijMaIyBtZg+aw0RqqVfNV/OI/ILvhZiO27p0Yo9F7wLzK6Dlmee9wXnY/s/fWe+H+7nb/Ys9pPH0PxvlrxHWxOX7x7/CPzbZavXeyh1wca6iRnK2i1pG/Dz7nbC6cDwfD+Kq/Enm989K6EXsdUfNqRs5xJGerqDWzZ1v5vD7EXkfUHKVzxfHMtdqDzxfxZHHdNWbFmC3XVMf0xmGerbauM+yde4auUefdcx5n8ot/Q9y0uJFms87aOzFHFoB1VP1nwQMwPjXQvkV2bhFM+3pzRb/WUMjR2CurGfFOsvOLgKOu7WrvsAeibpwHAvPo8dEwl4btp9c0rnXLq+6Fztdb5yvoGhFM+654Hn7xL2Dzm8169d4560Eze554EGbREv0zc+05/1ffu8xZ9/OVzjrH2ft7lf2w6vrgt8SiDZEdv4uz9thTxX456hpf+d7dcV/5xT8RN/LdHnp2jiP3jtbOHrRn7d2ZeUZys3PpGTn/mZoj65zVWx8bOZ/KnrEr9dbwynXOzrNqXTPnu+f6jI5Fnuayqr+a40p616HXfxcj56H9r7BinVkN0FqZkTX0jNTQ/qvyi38hbmAWZj3ZvomYkY3PHlJ4GFU52s958Ql6PILrIc625fw1h2muBmR1I9AOmteaO8zmsz1jVxlZQy9H+zkvPkGPR3A9BMuONWB2ndzfMpvPRsdGu+ZyoD+j46q8GdVa0N6jOb019vrvYvY8WzmQjYnQvIzWBq2pedmcIzlZXkAu0/HZuJ5eDe3Pcq7AL/6JuFFVmLVkewYxKhsbUenlcD/n4RP4WPuC9meRqdoV8rL8Vo3oQ2S4v8oJmpcFq/rxCdrPqraR/NmxR8OcI2vo5XA/5+ET+Fj7gvZnwfhY8xCs6scnaD+r2kbyZ8cqzuXoaeVubUM9DrTzZ+DvQY9DtCEyrf49bSvM1I1cRIb7WzlMx6Afn4G/s1Y7IsP9ozlVXsj6WuNm2qoagfurnFfzi7+ZmZmZ2QP4xd/MzMw2uepfZzCznF/8zczMbMgd/g6zmdV+fX19/fn79++fQzMzMzMze0d/vfh/fn7+HNqs7+/vPz4+Pn6OzMZ579hdee+a7effkZ0J+81/1cfMzMzM7AH84m9mZmZm9gB+8TczMzMzewC/+Dfwv7nAbMaevXPGfrvqnm6t65Vrjrl7sdJsPc5fvZZRr5p31quvbdTI4mp4TVdc3xPw/sjuwZXvy9a18flmcQUz67jKmplf/Atxs/i/vnbFm2fXdIe9E+uycXw/s1jtiJr2T6+6tvEc0GcDx9WeE7Eme41qr6D93el5c9h+fvFP4AfH4vgJPzjbx3tnO1y7u12r7J6bMeyR1j7xc8JYtlf8nLEV/OJvdjPVy0HWHm0Ixsf4XuWyXg73t/L2qGpqe28N3F/l9MQ4/cNY60YwHFf9oWqr8nv2jN2imqc1P6+Rg4304zPrD1Vbld/TGxvtrT3Cqpd/zeccbuP2kLUB+jiYHvdUdaDVj7asvxrzruJcWy/42R7BNaquE/dneTiu+qp8hVz083fQnC0wNquDNm1nvRzu5xw+zvpZ1R56Y4/mF/9E9qOLG9T6MZqFK+0dzItoPWRGcns52l/lZTA2jI5p0bVoPe3PcnpQg2V1I3rz9+aezWd7xp6J14hgeh4IPZ/Z853NZ1vGzo4Zyecc9GdtwH0cmjdK6/Xmy+bhHPRnbfbvf87wNcquk/aP5KEva+tBvn4PXC9itGaGa8FI/V6O9nMOjvX7jN78Z/CLf0PcEMSWG2zP9eq9k83besj0ckfqaf9RdN7A6xtZa2Zm/dkcYbTGzPq2nk/YM/bVdO16HpWZ891zfUbGak42pqWaQ3FbfNdxaIOsxlbVGjFfrx84B/1Zm/07vkZBr5P2V7JrnbXpd9B8lfVndUK0ZcG0VvT36o/kZHQMy8Zn84St86/mF/+GuCGIs2+M3dtV906s52qu8jAcla3X1vI1vj/fP9sq9k4WtoZf/AfFprvqi4hd27vsnTgHDTWSswJf0/jUPxR4fgTD+Kq/Enk6l9K6EXsdUfOq4tyqa6zXIGKvI2qO0rniuLe/VuHzRdh7OuJe4xka4vOsfdvC54dQvRycV9WfmbkWXBdxNr/4J15xI+w9vPPeiYdZFhDn3urP4HrFpwbat8jWEcG0rzdX9GsNhRyNvbKaEU/yDtc26sZ5IDCPHh8Nc2nYPcT9G/Wke52dZwTL+iOY9s1c7x6tjTiTX/zNHmTlAyysqJc9BBEt0Y8/1EbsWevMPGdZfS+v4CrXedW1xR5l0YbIjt/FO+7PM8Q+aF27q/xGAtZ65b07sg9X7NU912LF/DP84p/ADWRbb6g9yxl7p5qDrV7HEec1Mj6bt2dkrTM1R9Y5q7c+NnI+lT1j96jmbVm1rpnz3XN9RsciT3NZ1V/NcSW969Drt1x2n7O2uzh6H4zUH8nR/pVG5j+DX/wLuEGIs2+M3deKvcPjOWBkjhXrYL162s958XmmLWvVHKa5GpDVjUA7aF5r7jCbz/aM3WNk3mhnnI8ArYdAO4zMy2bz2ejYaNdcDvRndFyVN6NaC9p7NKe3xl6//bu4PnrNcN1mr11WB7Xicw/UyWT1dS3V2K1G6vdytL+Vw7K8jNYfGbOaX/wb4oYgzGbs2Ts8VoNpu/YHzQE+zsaFrB21WmM00K6ytszWGtGHyHB/lRM0LwtW9eMTtJ9VbSP5s2NXGZlXc/iYczlY1Y9P0H5WtY3kz45VnMvR08rd2oZ6HGjnz8Dfgx6HaENkWv172t4ZrhdCVddD27kGAu38yUbbWqoaiMzIHK2cXv3Qy+H+Vs6ILK9X+2h+8TczMzOzYa/6p9VXdLdr4Rd/MzOzm/ALl5nt4Rd/MzOzi8LfBUb4pd9ezfvwX+54LX59fX39+fv3759DMzMzMzN7R3+9+H9+fv4c2qzv7+8/Pj4+fo7Mxnnv2F1575rt59+RnQn7zX/Vx8zMzMzsAfzib2ZmZmb2AH7xNzMzMzN7AL/4D4r/57bZKPwbOPbsG66xp07YOn52XC9/73mEPTVibC9Wmq3H+avX8i5efU2jRhZXw2u64vqsjfcWYrUjarbo+WggB/h70GPbxi/+A7zZbEbsl/jXeyFm90/kaw3Uma21V8x7NXvWxNczi9WOqPl0r7qm1e8ScfZvsyfWZPdU7bOr7bEtsvNCoN+O5Rd/s4XwwGZxPPvAzh5+fiAeK7t3ZoFfxCrR9w4vZvZareeQ95it4Bf/Dr8M2Jl6+6168EebRqbVjzbur/I4Z6WqJrfr9yxmxRi97lozguG46g9VW5Xfs2fs0XhtHGykH59Zf6jaqvye3thob+0NNvL7xDFwG7eHrA3Qx8H0uKeqA61+tGX91RjbBnuxuqZo509EZW8O2lo5o6r6aM/qo03bA9qq/ifyi39DbBJ94Ju1ZPtl9T7SWqivoQ85zdP+wDmZkRpn4rUgZuGcmJ4nQs939nrM5rM9Y8/Aa0MwXT9Cz2P2PGfz2Zaxs2NG8jkH/VkbcB+H5o3Ser35snk4B/1Zm7WtvFZ8/au6Z+ZshZr6Pcyuzfzib3aIeNAgjn7YjNbXvDjWh2SrVnYuWY1Xmr3eVf5ojZnrsef67Rn7KrpmXX9l5jz3XJeRsZqTjWmp5lDcFt91HNogq7FVtUbM1+sHzkF/1mZ9uFYaLLuecazXnGVjejlaM2ypA9GWxRYxbsvans4v/oVsQ5mNir2D2PpQgxivYf9ZXJeZ3+xsvo3ztb0/37/Xiuuv8Q7P/uy8Iuw8fvFP+A8tWyn20p4HNj8cq30Z9TWOcNY8s2Id1bXJjOTzOSL2OqLm1cQ5nblPj6g5SueK45l9uAefL8LeW+wtvs98HJ9n7b0rwd7nsDa/+BeyjeQNZT2v2CMxZzzwNY6QzRNxJ7heLUdd06xmxBO8wzWNunEeCMyjx0fDXBpmT5P9DiKs5hf/RLWJ8Gl2lNhj8Yd6pdX3Kq9e08wL10zuWa54T7e6yvVddU2z32O0IbLjd/FO+/JOZq977Lur/O6uwnu3zS/+ZgvhIcy2PJSzB9feh9neda06t5ZqjsrM/KvXGrK1VnNU5zaypj1jz7JqPTPnuee6jI5Fnuayqr+a40p616HXb2tl1xtmr/uK+3bl+3/ltV2ZX/zNFsPDCDH7EIp8rYE6Wa0sF/nxCZqX1epZUYPHc8DsHJyLqGS5HKBrQKAdZtc6m8/2jD0Lrw8Bun4E2mH2PGfz2ejYaNdcDvRndFyVN6NaC9p7NKe3xl6/raXXu3Xdq/aw6r6tqrMX1sGusrY78Yv/IG8mmxH7BbEV1+A6WU3NRU72yf1spm2mBuOxGkzbuV+/Z5HJ8jRY1Y9P0H5WtY3kz459NV4bB6v68Qnaz6q2kfzZsYpzOXpauVvbUI8D7fwZ+HvQ4xBtiEyrf0+b5XCtObZoja9qVrl761R5jHNG54o2hMrans4v/mZmZmY343/CbVv4xd/MzOwkflkzs1fyi7+ZmdlB+O8f+6XfVvFesq1+fX19/fn79++fQzMzMzMze0d/vfh/fn7+HNqs7+/vPz4+Pn6OzMZ579hdee+a7effkZ0J+81/1cfMzMzM7AH84m9mZmZm9gB+8TczMzMzewC/+Cf038LAYTZiz57hsVmsxPVGaq+ev4Jz5VDclvWvwPNXMWomt2dlrbvhcx+5Dkddq6irkanaW7aMqaysZcfDXmoF8npGcux5/OJfiH9NVhZmPfGw5T2z5eHL4zWOcmTtGXr9EHodo+1ouoaqbcRMbs/KWnf2quswuke3ilqrrKxlx+P9lAXwd7MZfvE3WwgvBCyOV70QvLvs+oGvo12B96i9SmvvmY3yi7/ZTVUvGFl7tCEqe8a1cri/yhnFf+hltar63I51cKzSqom2aj5tR50sn9vwXXNxzHGG1nzVGqrcqg7sGdfK4f4qp4I9ymOzOmjT9oC2rC9oO+pk+dyG75qLYw67lrgnI8+/1v3j/iwPx1U/G8mxa/KLf4M3ts264j+Nif0b60KM7ueRcb0c7c9yWK9/r2w9q+bU2lXNrA9jYbQWcL4ec/Tq7DW77srWOiPjejnarznZmAzG6vfQWwNkfRgLo7WA8/WYo1fHzoN71KL3Ue/f6H3u1QkjOXZdfvEveGPbKthLM2JMFrNijM49sp+rcWxrbR2jUENjRDZ/HGPO3txb8RyQrWXEllpZ/tlWXYOtdapxbGvtaozGiMjbsobMllpZvl1Xdo9VtQ/Y6H3OxvF+2rLn7Fr84l/wxrYVsofkiBiTxSorax1BzzvinX5/fD5b98jTXO0aYV9yHLFHua73yrP4ftsR/OKf8A/NVnjCQzvOUYPhpaXqn4FaPZwXn3oPsA6OFWbrYp26vqB1ImatqDHrFXPO6q0R96Xqb+G916L1e2Peca9YW9yD7H7vofc4YotVdew1/OKf8Ca2vWIPrX5oX1GcYxZM+175+8J90VghqxtRwVqy66E1EKOOPM+WbM6IK8nWF8G0b/We1fqIyjvuFavhnqy08j5ndSLsHvzib7bYEQ/t1bIXiFX21F61rrj+V7gP1fnw2rDWnlXX5myr1n3k+c/UPmodVd1of8pesX+/33fiPXcffvFPZA/Xu/4Y7Vxn7pNqn7Kte3lVbe3vyWqC1r6SkWsxamWtM42su8phW89/VW3tV1kN0FqZkTWMWlnLXm/1PjiC99z9+cW/gM2N8Ka2UbxvOGZk4xFsZJ9u3csramt/lqOyMSPjRrRqx+ceWrtab9an84/Wquh4rhOfRxlZ96qczIra2j+ak+UF5DIdn40LWZ/WG61V0fFcJz7tXHofNCq9fbDyPvfmsmvzi39DbGaE2QjeMxqjsrEcSvtGcoCPR8aN5Cjur3KUjsnGcVuvn6EeB9p7ejlak6GtqqHtqJPlc1vWH3g8Au1H0vkympPlag7w8ci4kRzF/aM5VV7I+lrj0Jb1BW1HnSyf27L+wOMRaLfz6D3IAvg7aJ7mcD8C7fypsnaMr8bYdfnF38zMzMzsAfzib2ZmZmb2AH7xNzMzMzN7gF9fX19//v79++fQzMzMzMze0V8v/p+fnz+HNuv7+/uPj4+PnyOzcd47dlfeu2b7+XdkZ8J+81/1MTMzMzN7AL/4m5mZmZk9gF/8zczMzG5u9j/EZc/kF/8G/i/Tmc1YsXe4xp46W/B8Z83N58pxljPnsrWudO+OWgt+DxqZqn2LlbVaeJ6z5ryqOP8sWtBf5fXGr3LWPLadX/wLsXn5v0znzWyj9u6dyNcaqDNba4WY+yx6zhFnnXPMZbbX6n1UPQ8Qr3gmHCHOxf5F73ME9oLC/gjIexWsw67LL/4J/hHBq39Mdg+r9k728MzansC/PXsqPE9av33/Pp4j2wer/syx5/CL/4TWw9dshewhzvSBHt81GI6rvqxdcT++98Zyfytvq1ZdtGX9aNP2wG34rrk45rB/17o23Jfl4Ljqy9oV+kfyWzloy/rRpu2B2/Bdc3HMoaJNnwVVfvWiV+WzKofb9Ds+8R2yNkAfB9PjnqoOtPrRlvVXY66iuteq9edIpqqZteMaoY9zsny7Fr/4N+jmNuuZfdhugTliX8Z3Dd2vnAc6dmaP98Zqf5W3VW/+wDkwMo5pDR2P6NV5ktY1Hr1+nAetupmR/NkcGBnHtIaOR8zUWZXfykGbfg88DmOyNuA+Ds0bpfV682XzcA76s7arO3utfI3udJ3sX/ziX/DmtlWwl1Ybral52Xpm9nhvrPbvxesdXbvmjI5jWb7Vetd49Ppp3qp7x/mjNTVn1Vp6dJ5s3p5sXl7nlnMBHocxWRtw3169dff6gXPQn7XdAa/1yDXrNQp6bNfnF/9Ctrnv8hCw68gelFaL66Xh63dvvn92hqfvM5x/fMZz06ziF3+zg5zx0sovyIgr2LquuF4aamvtrePYihpPdqXrt3UtW8exvTU0P46z38qV8Lki7BixF3x9reIXf7MDxEP3qD+I8UDHHBqvdvS6stoRPdmYiFFXvd53cbXrl60loicbEzFqy3WI/hiHQL4eXxXWqGFm5/OLv9lie/4gjnExvnKHP+RfoXXNWraOs3F3usZX2UfZcyDaENnx0z3ltxznyff8Kedt6/jFPxE/Kv0x6Y/NLLNqn2QP81UP+Dvv761rv/M538VR13hL3V7+1rVuHbcF5tL5WK+/5cxzWam37rue1wg9r7DqfKs6bCTHrs8v/gVscMTsj8iei/cNx6jYa7r/ItAOWQ7y4rNFx3Ldvfasa8TWtW8dBzqe68Snta/xnuvXqpsZyZ+tCVvHgY7nOvHJoq3Kj0D/Vlo7q4WcPXQexGhtzemtu9d/B7x+Po/sXHC+AXkZrsUBqINozdXKsWvzi39DbGiE2QjeMxqzRsZrDvL0M6NjGLdV35m2x7EG2iutPqV1WW+OkXFVDR6PQLv9k14bxn2co58ZHcOqtiofWjkrxlU1eDwC7RnNRVSqvqx9tl5VQ2lbHGugnT8Dfw96HKINkWn172k7A9at0YL+Ko/raDBt1/6gOSxrs2vxi7+ZmZnZzfml20b4xd/MzMzM7AH84m9mZmZm9gC/vr6+/vz9+/fPoZmZmZmZvaO/Xvw/Pz9/Dm3W9/f3Hx8fHz9HZuO8d+yuvHfN9vPvyM70z/328cf/B5Zhqfi7/pp7AAAAAElFTkSuQmCC;" vertex="1" parent="1">
          <mxGeometry x="-519" y="1740" width="766" height="150" as="geometry" />
        </mxCell>
      </root>
    </mxGraphModel>
  </diagram>
</mxfile>
